# Blender v2.78 (sub 0) OBJ File: ''
# www.blender.org
o Cube_Cube.001
v -1.000000 0.000000 0.391938
v -1.000000 4.983804 0.391938
v -1.000000 0.000000 -0.391938
v -1.000000 4.983804 -0.391938
v 0.390957 0.000000 -1.000981
v 0.390957 4.983804 -1.000981
v -0.392919 0.000000 -1.000981
v -0.392919 4.983804 -1.000981
v -0.391722 0.000000 -0.391938
v -0.391722 4.983804 -0.391938
v -0.392912 4.983804 -0.662264
v 0.001357 0.000000 0.391938
v 0.389115 0.000000 -0.002825
v 0.389115 4.983804 -0.002825
v 0.001357 4.983804 0.391938
vt 0.4743 0.5194
vt 0.2659 0.0002
vt 0.4743 0.0002
vt 0.9360 0.5194
vt 0.8543 0.0002
vt 0.9360 0.0002
vt 0.8539 0.5194
vt 0.7496 0.0002
vt 0.8539 0.0002
vt 0.1674 0.5622
vt 0.0180 0.6598
vt 0.0180 0.4990
vt 0.2189 0.5624
vt 0.2835 0.4365
vt 0.2835 0.5624
vt 0.0933 0.4368
vt 0.2655 0.5194
vt 0.0002 0.0002
vt 0.2655 0.0002
vt 0.7492 0.5194
vt 0.6368 0.0002
vt 0.7492 0.0002
vt 0.9998 0.5194
vt 0.9364 0.0002
vt 0.9998 0.0002
vt 0.6363 0.5187
vt 0.4747 0.5215
vt 0.6363 0.0002
vt 0.2659 0.5194
vt 0.8543 0.5194
vt 0.7496 0.5194
vt 0.1674 0.6599
vt 0.0002 0.5194
vt 0.6368 0.5194
vt 0.9364 0.5194
vt 0.4747 0.0002
vt 0.4747 0.5187
vn -1.0000 0.0000 0.0000
vn 0.0000 0.0000 -1.0000
vn 0.0000 0.0000 1.0000
vn 0.0000 1.0000 0.0000
vn 1.0000 0.0000 0.0018
vn 0.7134 0.0000 0.7007
vn -1.0000 0.0000 0.0044
vn -1.0000 -0.0001 0.0020
s off
f 2/1/1 3/2/1 1/3/1
f 8/4/2 5/5/2 7/6/2
f 15/7/3 1/8/3 12/9/3
f 10/10/4 2/11/4 15/12/4
f 11/13/4 6/14/4 8/15/4
f 10/10/4 14/16/4 11/13/4
f 6/17/5 13/18/5 5/19/5
f 14/20/6 12/21/6 13/22/6
f 4/23/2 9/24/2 3/25/2
f 10/26/7 11/27/7 9/28/7
f 2/1/1 4/29/1 3/2/1
f 8/4/2 6/30/2 5/5/2
f 15/7/3 2/31/3 1/8/3
f 10/10/4 4/32/4 2/11/4
f 11/13/4 14/16/4 6/14/4
f 10/10/4 15/12/4 14/16/4
f 6/17/5 14/33/5 13/18/5
f 14/20/6 15/34/6 12/21/6
f 4/23/2 10/35/2 9/24/2
f 7/36/8 9/28/8 11/27/8
f 11/27/1 8/37/1 7/36/1
