# Blender v2.78 (sub 0) OBJ File: ''
# www.blender.org
o Cube_Cube.001
v -1.000000 0.000000 0.391938
v -1.000000 4.983804 0.391938
v -1.000000 0.000000 -0.391938
v -1.000000 4.983804 -0.391938
v 1.000000 0.000000 0.391938
v 1.000000 4.983804 0.391938
v 1.000000 0.000000 -0.391938
v 1.000000 4.983804 -0.391938
vt 0.7498 0.6221
vt 0.5002 0.0002
vt 0.7498 0.0002
vt 0.4998 0.6221
vt 0.2502 0.0002
vt 0.4998 0.0002
vt 0.2498 0.6221
vt 0.0002 0.0002
vt 0.2498 0.0002
vt 0.9998 0.6221
vt 0.7502 0.0002
vt 0.9998 0.0002
vt 0.0076 0.6109
vt 0.2572 0.4557
vt 0.2572 0.6109
vt 0.5002 0.6221
vt 0.2502 0.6221
vt 0.0002 0.6221
vt 0.7502 0.6221
vt 0.0076 0.4557
vn -1.0000 0.0000 0.0000
vn 0.0000 0.0000 -1.0000
vn 1.0000 0.0000 0.0000
vn 0.0000 0.0000 1.0000
vn 0.0000 1.0000 0.0000
s off
f 2/1/1 3/2/1 1/3/1
f 4/4/2 7/5/2 3/6/2
f 8/7/3 5/8/3 7/9/3
f 6/10/4 1/11/4 5/12/4
f 4/13/5 6/14/5 8/15/5
f 2/1/1 4/16/1 3/2/1
f 4/4/2 8/17/2 7/5/2
f 8/7/3 6/18/3 5/8/3
f 6/10/4 2/19/4 1/11/4
f 4/13/5 2/20/5 6/14/5
