# Blender v2.78 (sub 0) OBJ File: ''
# www.blender.org
o MEP_GiantShroom_01.002
v 0.025590 0.636116 -0.058250
v 0.168841 0.621530 -0.142324
v 0.001587 0.603003 0.012553
v 0.340691 0.640358 -0.159690
v 0.546350 0.621445 -0.040723
v 0.283592 0.594841 -0.130367
v -0.082645 0.640185 0.415477
v 0.071522 0.817509 0.245392
v -0.113907 0.644635 0.255657
v -0.061998 0.647131 0.096925
v 0.165580 0.807802 0.076660
v 0.159711 0.826738 0.431396
v 0.432093 0.808397 0.091360
v 0.279926 0.898145 0.269978
v 0.060699 0.642612 0.571102
v -0.091552 0.608413 0.314994
v 0.078893 0.606217 0.548783
v 0.519902 0.591190 -0.006432
v 0.302363 0.588934 0.267132
v 0.670393 0.647532 0.454880
v 0.614851 0.622816 0.500531
v 0.718805 0.633600 0.301534
v 0.687612 0.649757 0.142098
v 0.687863 0.611123 0.198398
v 0.246997 0.647916 0.660983
v 0.410533 0.647810 0.669144
v 0.373962 0.812546 0.488612
v 0.562233 0.647550 0.591422
v 0.516283 0.812193 0.347170
v 0.345689 0.626620 0.648086
v 0.262792 0.627159 0.270922
v 0.296904 0.627867 0.226180
v 0.236198 0.564207 0.221901
v 0.340241 0.627603 0.261879
v 0.348035 0.562924 0.201590
v 0.306121 0.627550 0.304347
v 0.367643 0.565371 0.312579
v 0.260776 0.565224 0.324025
v 0.251543 0.475640 0.276801
v 0.313486 0.476380 0.307394
v 0.205458 0.229918 0.254409
v 0.305751 0.475017 0.232475
v 0.347164 0.475853 0.265324
v 0.261565 0.227997 0.261219
v 0.130992 -0.027017 0.051408
v 0.071222 -0.049714 0.099400
v 0.231532 0.232922 0.196472
v 0.251338 -0.030157 0.150276
v 0.226118 -0.034276 0.082039
v 0.285225 0.230453 0.224662
v 0.112286 -0.034799 0.192593
v 0.216808 -0.038185 0.200710
v -0.096353 0.569341 -0.170753
v -0.142611 0.598351 -0.274864
v -0.056417 0.535549 -0.143194
v -0.158021 0.612101 -0.395929
v -0.095670 0.607241 -0.560461
v -0.148919 0.591361 -0.341984
v 0.219389 0.482448 -0.096844
v 0.116306 0.579845 -0.206776
v 0.094697 0.502627 -0.081990
v -0.015697 0.530841 -0.106400
v 0.042711 0.616727 -0.253053
v 0.223162 0.580995 -0.287503
v 0.039840 0.646280 -0.451685
v 0.161313 0.638507 -0.344256
v 0.340123 0.483082 -0.186235
v 0.152690 0.476953 -0.098469
v 0.323612 0.474082 -0.201546
v -0.084326 0.590504 -0.551243
v 0.124853 0.460545 -0.369572
v 0.293713 0.548392 -0.647907
v 0.345820 0.517827 -0.607730
v 0.166761 0.579192 -0.690850
v 0.045917 0.598926 -0.676526
v 0.099252 0.575373 -0.682586
v 0.407707 0.513316 -0.333675
v 0.426211 0.518755 -0.455665
v 0.293759 0.592974 -0.417658
v 0.394745 0.521551 -0.564545
v 0.231869 0.612435 -0.491383
v 0.409443 0.505861 -0.398575
v 0.129700 0.473015 -0.344023
v 0.106468 0.482824 -0.365519
v 0.088438 0.438768 -0.325006
v 0.126915 0.482201 -0.392548
v 0.077601 0.454708 -0.405107
v 0.150227 0.473631 -0.370970
v 0.152847 0.439873 -0.418932
v 0.154322 0.425781 -0.341870
v 0.107020 0.370079 -0.335134
v 0.132251 0.372059 -0.382119
v 0.129454 0.184530 -0.311117
v 0.078258 0.383117 -0.377174
v 0.103019 0.381944 -0.408844
v 0.135402 0.181710 -0.354330
v 0.024753 -0.021382 -0.267155
v 0.059698 -0.037886 -0.220257
v 0.079164 0.183143 -0.331186
v 0.104476 -0.023700 -0.361385
v 0.052295 -0.027148 -0.342445
v 0.101989 0.180562 -0.374262
v 0.133026 -0.026076 -0.253274
v 0.142583 -0.029237 -0.334771
v -0.679401 0.542747 0.019499
v -0.623139 0.540333 -0.109870
v -0.677722 0.528544 0.091665
v -0.533204 0.537919 -0.194604
v -0.345298 0.528408 -0.231681
v -0.573590 0.524074 -0.154052
v -0.524221 0.536088 0.383332
v -0.494473 0.610333 0.183384
v -0.624235 0.540379 0.294555
v -0.678034 0.542690 0.163837
v -0.505562 0.617336 0.063055
v -0.341580 0.615031 0.208930
v -0.341727 0.611601 -0.069948
v -0.339762 0.657374 0.099998
v -0.345298 0.528406 0.416967
v -0.573838 0.524085 0.337517
v -0.345903 0.514301 0.398374
v -0.345903 0.514301 -0.214603
v -0.347790 0.470349 0.091845
v -0.017140 0.514321 0.019499
v -0.014084 0.500059 0.091665
v -0.067457 0.516482 -0.109870
v -0.157268 0.521783 -0.194604
v -0.118217 0.504529 -0.154052
v -0.166375 0.520728 0.383332
v -0.066361 0.516434 0.294555
v -0.189651 0.597250 0.183384
v -0.012561 0.514126 0.163837
v -0.178004 0.603276 0.063055
v -0.117969 0.504518 0.337517
v -0.365569 0.489108 0.110153
v -0.365450 0.489154 0.073606
v -0.409337 0.448086 0.096431
v -0.328584 0.487572 0.073606
v -0.353229 0.445678 0.031520
v -0.328771 0.487500 0.109955
v -0.288377 0.442895 0.087679
v -0.347052 0.444311 0.145026
v -0.381561 0.381073 0.121967
v -0.327755 0.378763 0.110031
v -0.369096 0.184262 0.124360
v -0.369636 0.380561 0.068112
v -0.327755 0.378763 0.068112
v -0.330771 0.181252 0.100565
v -0.432160 -0.021643 0.048839
v -0.445794 -0.039003 0.108940
v -0.383114 0.186974 0.075175
v -0.309231 -0.025009 0.050373
v -0.357915 -0.028301 0.020574
v -0.335465 0.183339 0.065840
v -0.374414 -0.027045 0.146503
v -0.305494 -0.030897 0.099387
vt 0.5683 0.5199
vt 0.7417 0.5707
vt 0.4841 0.5392
vt 0.8698 0.6591
vt 0.9986 0.9994
vt 0.7992 0.6327
vt 0.2565 0.5774
vt 0.1868 0.3969
vt 0.3443 0.4884
vt 0.3855 0.3679
vt 0.1872 0.2886
vt 0.3776 0.2395
vt 0.0036 0.4453
vt 0.2261 0.0493
vt 0.0021 0.1660
vt 0.0002 0.0039
vt 0.3173 0.1254
vt 0.0029 0.3306
vt 0.0029 0.6458
vt 0.1055 0.6946
vt 0.2301 0.5892
vt 0.1802 0.6534
vt 0.3982 0.5262
vt 0.0006 0.9992
vt 0.0304 0.9993
vt 0.9534 0.9994
vt 0.4973 0.9992
vt 0.5683 0.5199
vt 0.4841 0.5392
vt 0.7417 0.5707
vt 0.8698 0.6591
vt 0.7992 0.6327
vt 0.2565 0.5774
vt 0.3443 0.4884
vt 0.1868 0.3969
vt 0.3855 0.3679
vt 0.3776 0.2395
vt 0.1872 0.2886
vt 0.2261 0.0493
vt 0.3173 0.1254
vt 0.1055 0.6946
vt 0.1802 0.6534
vt 0.2301 0.5892
vt 0.3982 0.5262
vt 0.5690 0.4669
vt 0.5233 0.4629
vt 0.5544 0.4102
vt 0.4766 0.4681
vt 0.4977 0.4119
vt 0.4310 0.4815
vt 0.4421 0.4200
vt 0.3970 0.5156
vt 0.3644 0.4442
vt 0.6291 0.4244
vt 0.5844 0.3399
vt 0.6537 0.3312
vt 0.5782 0.0591
vt 0.4028 0.3508
vt 0.5139 0.3403
vt 0.4593 0.3440
vt 0.3921 0.0768
vt 0.9570 0.2635
vt 0.9593 0.3536
vt 0.6645 0.2772
vt 0.9550 0.0882
vt 0.9602 0.1614
vt 0.6664 0.1140
vt 0.5059 0.0609
vt 0.4374 0.0667
vt 0.6422 0.0627
vt 0.9521 0.4549
vt 0.6706 0.4443
vt 0.6658 0.0156
vt 0.6691 0.5455
vt 0.9471 0.5868
vt 0.9534 0.0123
vt 0.5683 0.5199
vt 0.7417 0.5707
vt 0.4841 0.5392
vt 0.8698 0.6591
vt 0.9986 0.9994
vt 0.7992 0.6327
vt 0.2565 0.5774
vt 0.1868 0.3969
vt 0.3443 0.4884
vt 0.3855 0.3679
vt 0.1872 0.2886
vt 0.3776 0.2395
vt 0.0036 0.4453
vt 0.2261 0.0493
vt 0.0021 0.1660
vt 0.0002 0.0039
vt 0.3173 0.1254
vt 0.0029 0.3306
vt 0.0029 0.6458
vt 0.1055 0.6946
vt 0.2301 0.5892
vt 0.1802 0.6534
vt 0.3982 0.5262
vt 0.0006 0.9992
vt 0.0304 0.9993
vt 0.9534 0.9994
vt 0.4973 0.9992
vt 0.5683 0.5199
vt 0.4841 0.5392
vt 0.7417 0.5707
vt 0.8698 0.6591
vt 0.7992 0.6327
vt 0.2565 0.5774
vt 0.3443 0.4884
vt 0.1868 0.3969
vt 0.3855 0.3679
vt 0.3776 0.2395
vt 0.1872 0.2886
vt 0.2261 0.0493
vt 0.3173 0.1254
vt 0.1055 0.6946
vt 0.1802 0.6534
vt 0.2301 0.5892
vt 0.3982 0.5262
vt 0.5690 0.4669
vt 0.5233 0.4629
vt 0.5544 0.4102
vt 0.4766 0.4681
vt 0.4977 0.4119
vt 0.4310 0.4815
vt 0.4421 0.4200
vt 0.3970 0.5156
vt 0.3644 0.4442
vt 0.6291 0.4244
vt 0.5844 0.3399
vt 0.6537 0.3312
vt 0.5782 0.0591
vt 0.4028 0.3508
vt 0.5139 0.3403
vt 0.4593 0.3440
vt 0.3921 0.0768
vt 0.9570 0.2635
vt 0.9593 0.3536
vt 0.6645 0.2772
vt 0.9550 0.0882
vt 0.9602 0.1614
vt 0.6664 0.1140
vt 0.5059 0.0609
vt 0.4374 0.0667
vt 0.6422 0.0627
vt 0.9521 0.4549
vt 0.6706 0.4443
vt 0.6658 0.0156
vt 0.6691 0.5455
vt 0.9471 0.5868
vt 0.9534 0.0123
vt 0.5683 0.5199
vt 0.7417 0.5707
vt 0.4841 0.5392
vt 0.8698 0.6591
vt 0.9986 0.9994
vt 0.7992 0.6327
vt 0.2565 0.5774
vt 0.1868 0.3969
vt 0.3443 0.4884
vt 0.3855 0.3679
vt 0.1872 0.2886
vt 0.3776 0.2395
vt 0.0036 0.4453
vt 0.2261 0.0493
vt 0.0021 0.1660
vt 0.0002 0.0039
vt 0.3173 0.1254
vt 0.0029 0.3306
vt 0.0029 0.6458
vt 0.1055 0.6946
vt 0.2301 0.5892
vt 0.1802 0.6534
vt 0.3982 0.5262
vt 0.0006 0.9992
vt 0.0304 0.9993
vt 0.9534 0.9994
vt 0.4973 0.9992
vt 0.5683 0.5199
vt 0.4841 0.5392
vt 0.7417 0.5707
vt 0.8698 0.6591
vt 0.7992 0.6327
vt 0.2565 0.5774
vt 0.3443 0.4884
vt 0.1868 0.3969
vt 0.3855 0.3679
vt 0.3776 0.2395
vt 0.1872 0.2886
vt 0.2261 0.0493
vt 0.3173 0.1254
vt 0.1055 0.6946
vt 0.1802 0.6534
vt 0.2301 0.5892
vt 0.3982 0.5262
vt 0.5690 0.4669
vt 0.5233 0.4629
vt 0.5544 0.4102
vt 0.4766 0.4681
vt 0.4977 0.4119
vt 0.4310 0.4815
vt 0.4421 0.4200
vt 0.3970 0.5156
vt 0.3644 0.4442
vt 0.6291 0.4244
vt 0.5844 0.3399
vt 0.6537 0.3312
vt 0.5782 0.0591
vt 0.4028 0.3508
vt 0.5139 0.3403
vt 0.4593 0.3440
vt 0.3921 0.0768
vt 0.9570 0.2635
vt 0.9593 0.3536
vt 0.6645 0.2772
vt 0.9550 0.0882
vt 0.9602 0.1614
vt 0.6664 0.1140
vt 0.5059 0.0609
vt 0.4374 0.0667
vt 0.6422 0.0627
vt 0.9521 0.4549
vt 0.6706 0.4443
vt 0.6658 0.0156
vt 0.6691 0.5455
vt 0.9471 0.5868
vt 0.9534 0.0123
vn -0.6645 0.0163 -0.7472
vn -0.3475 -0.1644 -0.9232
vn -0.5074 -0.8109 -0.2917
vn 0.2263 0.0845 -0.9704
vn 0.6462 -0.1264 -0.7527
vn 0.0146 -0.8664 -0.4991
vn -0.8774 -0.0533 0.4769
vn -0.5352 0.8428 -0.0580
vn -0.9924 0.0299 -0.1196
vn -0.9224 0.0886 -0.3759
vn -0.2655 0.8493 -0.4562
vn -0.3377 0.8422 0.4203
vn 0.3217 0.8505 -0.4162
vn -0.0064 0.9996 -0.0271
vn -0.5964 0.0347 0.8020
vn -0.6060 -0.7907 0.0870
vn -0.2696 -0.8751 0.4019
vn 0.2341 -0.9419 -0.2407
vn 0.0085 -0.9993 0.0361
vn 0.8980 0.0072 0.4399
vn 0.4007 -0.8547 0.3300
vn 0.9787 -0.1715 0.1124
vn 0.8884 0.1684 -0.4271
vn 0.5962 -0.7913 -0.1361
vn -0.2321 -0.0655 0.9705
vn 0.2598 -0.1154 0.9588
vn 0.1528 0.8524 0.5001
vn 0.5937 -0.1135 0.7966
vn 0.4874 0.8638 0.1273
vn 0.0145 -0.8853 0.4648
vn -0.8242 0.5479 0.1430
vn -0.1011 0.5665 -0.8178
vn -0.8186 0.0623 -0.5710
vn 0.8027 0.5874 -0.1029
vn 0.5631 0.0498 -0.8249
vn 0.0661 0.5527 0.8308
vn 0.7989 0.0986 0.5933
vn -0.5617 0.0958 0.8218
vn -0.9656 -0.1716 0.1953
vn 0.2218 -0.3084 0.9250
vn -0.8012 0.1423 0.5813
vn 0.0431 -0.2154 -0.9756
vn 0.9292 -0.3635 -0.0667
vn 0.3957 -0.2609 0.8805
vn -0.3015 0.5509 -0.7782
vn -0.8528 0.4838 -0.1966
vn -0.2657 0.4234 -0.8661
vn 0.9891 -0.1412 0.0424
vn 0.5969 0.2548 -0.7608
vn 0.9687 -0.1130 -0.2212
vn -0.7024 0.0821 0.7070
vn 0.3929 -0.2616 0.8816
vn -0.7779 0.2185 0.5891
vn -0.8792 0.3298 0.3440
vn -0.6062 -0.6876 0.3997
vn -0.9450 0.2912 -0.1486
vn -0.7729 0.2725 -0.5731
vn -0.7976 -0.6032 0.0033
vn 0.4382 -0.1842 0.8798
vn 0.2038 0.8492 0.4871
vn -0.1423 -0.0667 0.9876
vn -0.3521 -0.0729 0.9331
vn 0.0015 0.9429 0.3332
vn 0.3785 0.8397 0.3893
vn -0.0007 0.9988 -0.0498
vn 0.2093 0.9595 0.1885
vn 0.7739 -0.1192 0.6220
vn -0.0736 -0.8687 0.4899
vn 0.2395 -0.9669 0.0878
vn -0.5290 -0.7750 -0.3458
vn -0.1617 -0.9804 -0.1127
vn 0.4245 0.1408 -0.8944
vn 0.4297 -0.6252 -0.6515
vn 0.1933 0.1845 -0.9636
vn -0.4213 0.2563 -0.8700
vn -0.2062 -0.5927 -0.7786
vn 0.9404 0.0736 0.3319
vn 0.9900 -0.0500 -0.1321
vn 0.4245 0.9025 0.0735
vn 0.8879 -0.1211 -0.4437
vn 0.2637 0.9540 -0.1423
vn 0.5017 -0.8651 -0.0012
vn 0.2550 0.5077 0.8229
vn -0.5980 0.7808 0.1811
vn -0.5366 0.2013 0.8195
vn 0.0777 0.7629 -0.6418
vn -0.7486 0.3729 -0.5483
vn 0.9128 0.4063 0.0418
vn 0.6390 0.0835 -0.7647
vn 0.8100 -0.0932 0.5789
vn -0.0192 -0.1438 0.9894
vn 0.9178 -0.3112 -0.2467
vn 0.5598 0.2378 0.7938
vn -0.9902 -0.1144 -0.0803
vn -0.1897 -0.2712 -0.9436
vn 0.9075 -0.0310 -0.4188
vn -0.9023 0.3277 0.2800
vn -0.1982 0.3824 0.9025
vn -0.9328 0.2150 0.2891
vn 0.1391 -0.0668 -0.9880
vn -0.7433 0.0585 -0.6664
vn -0.2460 -0.0712 -0.9666
vn 0.7328 0.1918 0.6529
vn 0.9304 -0.0002 -0.3664
vn -0.9588 0.0615 -0.2773
vn -0.8539 0.0840 -0.5137
vn -0.7309 -0.6825 0.0050
vn -0.3911 0.0812 -0.9167
vn 0.0036 0.0848 -0.9964
vn -0.4895 -0.7084 -0.5085
vn -0.3682 0.0580 0.9280
vn -0.2283 0.9499 0.2135
vn -0.8554 0.0652 0.5138
vn -0.9582 0.0738 0.2764
vn -0.2738 0.9573 -0.0928
vn 0.0400 0.9319 0.3606
vn 0.0406 0.9464 -0.3204
vn 0.0429 0.9987 0.0266
vn 0.0050 0.1156 0.9933
vn -0.4913 -0.6982 0.5207
vn -0.0392 -0.9126 0.4070
vn -0.0385 -0.8968 -0.4408
vn -0.0429 -0.9991 0.0000
vn 0.9612 0.0329 -0.2740
vn 0.7437 -0.6682 -0.0187
vn 0.8619 0.0116 -0.5069
vn 0.3966 0.0474 -0.9167
vn 0.4270 -0.7477 -0.5085
vn 0.3718 0.0263 0.9280
vn 0.8578 -0.0084 0.5138
vn 0.3089 0.9268 0.2135
vn 0.9636 -0.0074 0.2671
vn 0.3575 0.9292 -0.0934
vn 0.4296 -0.7378 0.5207
vn -0.4871 0.6491 0.5843
vn -0.5108 0.6792 -0.5271
vn -0.9815 0.1816 0.0607
vn 0.5545 0.6349 -0.5380
vn -0.0741 0.1213 -0.9898
vn 0.5619 0.5841 0.5858
vn 0.9962 0.0797 -0.0342
vn 0.0826 0.1239 0.9889
vn -0.6816 -0.2257 0.6960
vn 0.7395 -0.2511 0.6245
vn -0.3094 0.1010 0.9456
vn -0.6219 -0.2300 -0.7485
vn 0.6672 -0.2885 -0.6867
vn 0.8988 0.0351 0.4370
vn -0.7759 0.2552 -0.5769
vn -0.8787 0.2206 0.4234
vn -0.8295 0.1649 -0.5337
vn 0.8505 0.1391 -0.5072
vn 0.0790 0.1822 -0.9801
vn 0.5956 0.1102 -0.7957
vn 0.0230 0.1036 0.9944
vn 0.8941 0.1085 0.4345
s 1
f 1/1/1 2/2/2 3/3/3
f 4/4/4 5/5/5 6/6/6
f 7/7/7 8/8/8 9/9/9
f 10/10/10 11/11/11 1/12/1
f 8/8/8 7/7/7 12/13/12
f 8/8/8 11/11/11 10/10/10
f 4/14/4 13/15/13 5/16/5
f 11/11/11 4/14/4 2/17/2
f 8/8/8 12/13/12 14/18/14
f 14/18/14 13/15/13 11/11/11
f 12/13/12 7/7/7 15/19/15
f 8/8/8 10/10/10 9/9/9
f 11/11/11 2/17/2 1/12/1
f 11/11/11 8/8/8 14/18/14
f 7/20/7 9/21/9 16/22/16
f 9/21/9 10/23/10 16/22/16
f 2/2/2 4/4/4 6/6/6
f 10/23/10 1/1/1 3/3/3
f 15/24/15 7/20/7 17/25/17
f 6/6/6 18/26/18 19/27/19
f 16/22/16 3/3/3 19/27/19
f 17/25/17 16/22/16 19/27/19
f 3/3/3 6/6/6 19/27/19
f 2/2/2 6/6/6 3/3/3
f 5/5/5 18/26/18 6/6/6
f 10/23/10 3/3/3 16/22/16
f 7/20/7 16/22/16 17/25/17
f 20/28/20 21/29/21 22/30/22
f 23/31/23 24/32/24 5/5/5
f 25/33/25 26/34/26 27/35/27
f 28/36/28 20/37/20 29/38/29
f 12/13/12 25/33/25 27/35/27
f 27/35/27 28/36/28 29/38/29
f 23/39/23 5/16/5 13/15/13
f 29/38/29 22/40/22 23/39/23
f 27/35/27 14/18/14 12/13/12
f 23/39/23 13/15/13 29/38/29
f 12/13/12 15/19/15 25/33/25
f 27/35/27 26/34/26 28/36/28
f 29/38/29 20/37/20 22/40/22
f 13/15/13 4/14/4 11/11/11
f 29/38/29 14/18/14 27/35/27
f 25/41/25 30/42/30 26/43/26
f 26/43/26 30/42/30 28/44/28
f 22/30/22 24/32/24 23/31/23
f 28/44/28 21/29/21 20/28/20
f 15/24/15 17/25/17 25/41/25
f 24/32/24 19/27/19 18/26/18
f 30/42/30 19/27/19 21/29/21
f 17/25/17 19/27/19 30/42/30
f 21/29/21 19/27/19 24/32/24
f 22/30/22 21/29/21 24/32/24
f 5/5/5 24/32/24 18/26/18
f 28/44/28 30/42/30 21/29/21
f 25/41/25 17/25/17 30/42/30
f 31/45/31 32/46/32 33/47/33
f 32/46/32 34/48/34 35/49/35
f 34/48/34 36/50/36 37/51/37
f 36/50/36 31/52/31 38/53/38
f 38/54/38 33/47/33 39/55/39
f 40/56/40 39/55/39 41/57/41
f 37/51/37 38/53/38 40/58/40
f 33/47/33 35/49/35 42/59/42
f 35/49/35 37/51/37 43/60/43
f 32/46/32 35/49/35 33/47/33
f 34/48/34 37/51/37 35/49/35
f 36/50/36 38/53/38 37/51/37
f 31/45/31 33/47/33 38/54/38
f 40/56/40 38/54/38 39/55/39
f 43/60/43 40/58/40 44/61/44
f 43/60/43 37/51/37 40/58/40
f 39/55/39 33/47/33 42/59/42
f 42/59/42 35/49/35 43/60/43
f 45/62/45 46/63/46 47/64/47
f 48/65/48 49/66/49 50/67/50
f 39/55/39 42/59/42 47/68/47
f 42/59/42 43/60/43 50/69/50
f 44/70/44 40/56/40 41/57/41
f 50/69/50 43/60/43 44/61/44
f 41/57/41 39/55/39 47/68/47
f 47/68/47 42/59/42 50/69/50
f 45/62/45 47/64/47 49/66/49
f 51/71/51 41/72/41 46/63/46
f 50/67/50 44/73/44 48/65/48
f 44/74/44 41/72/41 52/75/52
f 46/63/46 41/72/41 47/64/47
f 44/73/44 52/76/52 48/65/48
f 41/72/41 51/71/51 52/75/52
f 47/64/47 50/67/50 49/66/49
f 13/15/13 14/18/14 29/38/29
f 53/77/53 54/78/54 55/79/55
f 56/80/56 57/81/57 58/82/58
f 59/83/59 60/84/60 61/85/61
f 62/86/62 63/87/63 53/88/53
f 60/84/60 59/83/59 64/89/64
f 60/84/60 63/87/63 62/86/62
f 56/90/56 65/91/65 57/92/57
f 63/87/63 56/90/56 54/93/54
f 60/84/60 64/89/64 66/94/66
f 66/94/66 65/91/65 56/90/56
f 64/89/64 59/83/59 67/95/67
f 60/84/60 62/86/62 61/85/61
f 63/87/63 54/93/54 53/88/53
f 63/87/63 66/94/66 56/90/56
f 63/87/63 60/84/60 66/94/66
f 59/96/59 61/97/61 68/98/68
f 61/97/61 62/99/62 68/98/68
f 54/78/54 56/80/56 58/82/58
f 62/99/62 53/77/53 55/79/55
f 67/100/67 59/96/59 69/101/69
f 58/82/58 70/102/70 71/103/71
f 68/98/68 55/79/55 71/103/71
f 69/101/69 68/98/68 71/103/71
f 55/79/55 58/82/58 71/103/71
f 54/78/54 58/82/58 55/79/55
f 57/81/57 70/102/70 58/82/58
f 62/99/62 55/79/55 68/98/68
f 59/96/59 68/98/68 69/101/69
f 72/104/72 73/105/73 74/106/74
f 75/107/75 76/108/76 57/81/57
f 77/109/77 78/110/78 79/111/79
f 80/112/80 72/113/72 81/114/81
f 64/89/64 77/109/77 79/111/79
f 79/111/79 80/112/80 81/114/81
f 75/115/75 57/92/57 65/91/65
f 81/114/81 74/116/74 75/115/75
f 79/111/79 66/94/66 64/89/64
f 66/94/66 75/115/75 65/91/65
f 64/89/64 67/95/67 77/109/77
f 79/111/79 78/110/78 80/112/80
f 81/114/81 72/113/72 74/116/74
f 81/114/81 75/115/75 66/94/66
f 81/114/81 66/94/66 79/111/79
f 77/117/77 82/118/82 78/119/78
f 78/119/78 82/118/82 80/120/80
f 74/106/74 76/108/76 75/107/75
f 80/120/80 73/105/73 72/104/72
f 67/100/67 69/101/69 77/117/77
f 76/108/76 71/103/71 70/102/70
f 82/118/82 71/103/71 73/105/73
f 69/101/69 71/103/71 82/118/82
f 73/105/73 71/103/71 76/108/76
f 74/106/74 73/105/73 76/108/76
f 57/81/57 76/108/76 70/102/70
f 80/120/80 82/118/82 73/105/73
f 77/117/77 69/101/69 82/118/82
f 83/121/83 84/122/84 85/123/85
f 84/122/84 86/124/86 87/125/87
f 86/124/86 88/126/88 89/127/89
f 88/126/88 83/128/83 90/129/90
f 90/130/90 85/123/85 91/131/91
f 92/132/92 91/131/91 93/133/93
f 89/127/89 90/129/90 92/134/92
f 85/123/85 87/125/87 94/135/94
f 87/125/87 89/127/89 95/136/95
f 84/122/84 87/125/87 85/123/85
f 86/124/86 89/127/89 87/125/87
f 88/126/88 90/129/90 89/127/89
f 83/121/83 85/123/85 90/130/90
f 92/132/92 90/130/90 91/131/91
f 95/136/95 92/134/92 96/137/96
f 95/136/95 89/127/89 92/134/92
f 91/131/91 85/123/85 94/135/94
f 94/135/94 87/125/87 95/136/95
f 97/138/97 98/139/98 99/140/99
f 100/141/100 101/142/101 102/143/102
f 91/131/91 94/135/94 99/144/99
f 94/135/94 95/136/95 102/145/102
f 96/146/96 92/132/92 93/133/93
f 102/145/102 95/136/95 96/137/96
f 93/133/93 91/131/91 99/144/99
f 99/144/99 94/135/94 102/145/102
f 97/138/97 99/140/99 101/142/101
f 103/147/103 93/148/93 98/139/98
f 102/143/102 96/149/96 100/141/100
f 96/150/96 93/148/93 104/151/104
f 98/139/98 93/148/93 99/140/99
f 96/149/96 104/152/104 100/141/100
f 93/148/93 103/147/103 104/151/104
f 99/140/99 102/143/102 101/142/101
f 105/153/105 106/154/106 107/155/107
f 108/156/108 109/157/109 110/158/110
f 111/159/111 112/160/112 113/161/113
f 114/162/114 115/163/115 105/164/105
f 112/160/112 111/159/111 116/165/116
f 112/160/112 115/163/115 114/162/114
f 108/166/108 117/167/117 109/168/109
f 115/163/115 108/166/108 106/169/106
f 112/160/112 116/165/116 118/170/118
f 118/170/118 117/167/117 108/166/108
f 116/165/116 111/159/111 119/171/119
f 112/160/112 114/162/114 113/161/113
f 115/163/115 106/169/106 105/164/105
f 115/163/115 118/170/118 108/166/108
f 115/163/115 112/160/112 118/170/118
f 111/172/111 113/173/113 120/174/120
f 113/173/113 114/175/114 120/174/120
f 106/154/106 108/156/108 110/158/110
f 114/175/114 105/153/105 107/155/107
f 119/176/119 111/172/111 121/177/121
f 110/158/110 122/178/122 123/179/123
f 120/174/120 107/155/107 123/179/123
f 121/177/121 120/174/120 123/179/123
f 107/155/107 110/158/110 123/179/123
f 106/154/106 110/158/110 107/155/107
f 109/157/109 122/178/122 110/158/110
f 114/175/114 107/155/107 120/174/120
f 111/172/111 120/174/120 121/177/121
f 124/180/124 125/181/125 126/182/126
f 127/183/127 128/184/128 109/157/109
f 129/185/129 130/186/130 131/187/131
f 132/188/132 124/189/124 133/190/133
f 116/165/116 129/185/129 131/187/131
f 131/187/131 132/188/132 133/190/133
f 127/191/127 109/168/109 117/167/117
f 133/190/133 126/192/126 127/191/127
f 131/187/131 118/170/118 116/165/116
f 118/170/118 127/191/127 117/167/117
f 116/165/116 119/171/119 129/185/129
f 131/187/131 130/186/130 132/188/132
f 133/190/133 124/189/124 126/192/126
f 133/190/133 127/191/127 118/170/118
f 133/190/133 118/170/118 131/187/131
f 129/193/129 134/194/134 130/195/130
f 130/195/130 134/194/134 132/196/132
f 126/182/126 128/184/128 127/183/127
f 132/196/132 125/181/125 124/180/124
f 119/176/119 121/177/121 129/193/129
f 128/184/128 123/179/123 122/178/122
f 134/194/134 123/179/123 125/181/125
f 121/177/121 123/179/123 134/194/134
f 125/181/125 123/179/123 128/184/128
f 126/182/126 125/181/125 128/184/128
f 109/157/109 128/184/128 122/178/122
f 132/196/132 134/194/134 125/181/125
f 129/193/129 121/177/121 134/194/134
f 135/197/135 136/198/136 137/199/137
f 136/198/136 138/200/138 139/201/139
f 138/200/138 140/202/140 141/203/141
f 140/202/140 135/204/135 142/205/142
f 142/206/142 137/199/137 143/207/143
f 144/208/144 143/207/143 145/209/145
f 141/203/141 142/205/142 144/210/144
f 137/199/137 139/201/139 146/211/146
f 139/201/139 141/203/141 147/212/147
f 136/198/136 139/201/139 137/199/137
f 138/200/138 141/203/141 139/201/139
f 140/202/140 142/205/142 141/203/141
f 135/197/135 137/199/137 142/206/142
f 144/208/144 142/206/142 143/207/143
f 147/212/147 144/210/144 148/213/148
f 147/212/147 141/203/141 144/210/144
f 143/207/143 137/199/137 146/211/146
f 146/211/146 139/201/139 147/212/147
f 149/214/149 150/215/150 151/216/151
f 152/217/152 153/218/153 154/219/154
f 143/207/143 146/211/146 151/220/151
f 146/211/146 147/212/147 154/221/154
f 148/222/148 144/208/144 145/209/145
f 154/221/154 147/212/147 148/213/148
f 145/209/145 143/207/143 151/220/151
f 151/220/151 146/211/146 154/221/154
f 149/214/149 151/216/151 153/218/153
f 155/223/155 145/224/145 150/215/150
f 154/219/154 148/225/148 152/217/152
f 148/226/148 145/224/145 156/227/156
f 150/215/150 145/224/145 151/216/151
f 148/225/148 156/228/156 152/217/152
f 145/224/145 155/223/155 156/227/156
f 151/216/151 154/219/154 153/218/153
