# Blender v2.78 (sub 0) OBJ File: ''
# www.blender.org
o polySurface5
v -0.696043 -0.097443 -0.850021
v -0.530351 -0.225792 -0.633544
v -0.820431 0.042887 -0.388587
v -0.545170 -0.198650 -0.293271
v -0.718109 0.162528 -0.869228
v -0.814616 0.267587 -0.453888
v -0.923457 0.230338 -0.054219
v -0.902108 0.438678 -0.098601
v -0.777897 0.097339 0.071842
v 0.153744 0.199247 -0.721843
v 0.041110 0.249153 -0.812785
v -0.095617 0.528513 -0.690673
v -0.160656 0.433102 -0.859531
v -0.226331 0.628775 -0.553299
v 0.114623 0.046374 -0.622597
v -0.528961 -0.203072 0.086564
v -0.282760 0.049129 -0.959113
v -0.438402 0.325937 -0.977557
v -0.164708 -0.213309 -0.648558
v -0.564216 0.527140 -0.512156
v -0.553625 0.518350 -0.092365
v -0.279304 0.682646 -0.298340
v -0.327907 0.669614 -0.043357
v -0.794776 0.353238 0.069499
v -0.492246 0.472885 0.033264
v -0.332043 0.502793 0.152986
v -0.818113 0.314374 0.182057
v -0.809064 -0.051377 0.493731
v -0.863738 0.158652 0.520550
v -0.623208 -0.240596 0.414849
v -0.455990 0.441573 0.391469
v -0.601442 0.248327 0.741106
v -0.270480 0.297322 0.839870
v -0.083839 0.599532 0.416552
v -0.536938 -0.022610 0.741302
v -0.375429 -0.238124 0.495503
v -0.300156 0.127092 0.818417
v -0.224896 -0.000020 0.747861
v 0.769267 -0.121168 -0.485654
v 0.849270 0.093866 -0.485927
v 0.769640 -0.068547 -0.130703
v 0.840705 0.073163 -0.138820
v 0.731684 0.159350 -0.772757
v 0.590826 -0.018046 -0.752092
v 0.432608 -0.212751 -0.619982
v 0.653672 -0.252509 -0.411710
v 0.224863 0.177745 -0.737216
v 0.337955 0.401967 -0.646217
v 0.656547 0.336100 -0.377348
v 0.552030 0.563281 -0.135520
v 0.719483 0.266167 -0.066644
v 0.530327 0.392735 0.063382
v 0.624965 0.326826 -0.570522
v -0.153536 0.744666 -0.550714
v -0.121931 0.872731 -0.058747
v -0.007653 0.929920 -0.432297
v 0.194308 0.590222 -0.613276
v 0.267527 0.837596 -0.479946
v 0.480273 0.655908 -0.377820
v 0.218394 0.736977 0.423389
v 0.278068 0.838507 -0.023335
v -0.064664 0.752281 0.293703
v 0.556029 0.676346 0.005242
v 0.504512 0.209732 0.723199
v 0.545496 0.325494 0.699442
v 0.306770 0.286515 0.666140
v 0.346358 0.412331 0.629729
v 0.017709 0.387387 0.539767
v 0.736923 0.387620 0.528304
v 0.453714 0.536056 0.336727
v 0.700493 0.370033 0.322524
v 0.583737 0.563980 0.112242
v 0.231713 0.525368 0.450698
v 0.722046 0.236322 0.262030
v 0.772311 0.204188 0.530628
v 0.042177 -0.272501 0.641297
v 0.429673 -0.296489 0.804462
v 0.066835 -0.040726 0.931884
v 0.484058 -0.180013 0.957709
v 0.462968 0.153495 0.922584
v 0.180061 0.244237 0.879453
v -0.242874 -0.187642 0.502538
v 0.685918 -0.260932 -0.124455
v 0.799619 -0.272934 0.073026
v 0.880598 -0.145145 0.057186
v 0.672209 -0.302856 0.459409
v 0.868167 -0.137231 0.556297
v 0.955874 0.148438 0.171394
v 0.856786 0.139979 0.616078
v -0.139559 0.260026 0.759933
v 0.154528 -0.196094 -0.487638
v 0.434873 0.726688 0.237082
vt 0.1423 0.4088
vt 0.0724 0.3909
vt 0.1958 0.3067
vt 0.0931 0.2522
vt 0.1895 0.4178
vt 0.2424 0.3414
vt 0.2903 0.2427
vt 0.3206 0.2769
vt 0.2654 0.1760
vt 0.2363 0.6858
vt 0.2233 0.6214
vt 0.3076 0.5388
vt 0.2457 0.5390
vt 0.3227 0.4937
vt 0.1410 0.6725
vt 0.1419 0.1218
vt 0.1603 0.5067
vt 0.2115 0.4782
vt 0.0452 0.5413
vt 0.2940 0.4093
vt 0.3784 0.3403
vt 0.3761 0.4451
vt 0.4250 0.3983
vt 0.3684 0.2291
vt 0.4158 0.3278
vt 0.4685 0.3510
vt 0.3817 0.1245
vt 0.4064 0.2063
vt 0.5185 0.1151
vt 0.5063 0.1647
vt 0.5385 0.0350
vt 0.4216 -0.0048
vt 0.5138 0.2893
vt 0.5820 0.2035
vt 0.6642 0.2578
vt 0.5676 0.3932
vt 0.6141 0.1435
vt 0.6534 0.0289
vt 0.6767 0.2073
vt 0.7195 0.1648
vt 0.4597 0.8954
vt 0.4820 0.8274
vt 0.6054 0.9016
vt 0.6219 0.8264
vt 0.4076 0.8016
vt 0.3661 0.8320
vt 0.3109 0.9089
vt 0.4499 0.9621
vt 0.2592 0.7122
vt 0.1990 0.7680
vt 0.3490 0.6778
vt 0.4874 0.7292
vt 0.5274 0.6396
vt 0.5990 0.7280
vt 0.5958 0.6476
vt 0.4284 0.7380
vt 0.3486 0.5114
vt 0.4495 0.4636
vt 0.3998 0.5228
vt 0.3530 0.6094
vt 0.4142 0.5784
vt 0.4559 0.6314
vt 0.5782 0.4744
vt 0.4993 0.5356
vt 0.5278 0.4298
vt 0.5462 0.5972
vt 0.7617 0.5041
vt 0.7330 0.5173
vt 0.7216 0.4534
vt 0.6905 0.4761
vt 0.6456 0.3824
vt 0.7092 0.5773
vt 0.6237 0.5389
vt 0.6684 0.6098
vt 0.5855 0.5998
vt 0.6332 0.4673
vt 0.6798 0.6527
vt 0.7457 0.6005
vt 0.9598 0.3021
vt 0.9600 0.4857
vt 0.8434 0.3554
vt 0.8984 0.4796
vt 0.8068 0.4712
vt 0.7655 0.3991
vt 0.9154 0.1765
vt 0.8105 0.2387
vt 0.5798 0.9942
vt 0.8249 0.8407
vt 0.7702 0.8185
vt 0.9396 0.6801
vt 0.8516 0.6466
vt 0.7117 0.7234
vt 0.7848 0.6068
vt 0.7009 0.2942
vt 0.7011 0.0417
vt 0.6891 0.8768
vt 0.7707 0.9355
vt 0.0271 0.6853
vt 0.1826 0.8895
vt 0.5707 0.5371
vn -0.5718 -0.5839 -0.5763
vn -0.3409 -0.8813 -0.3273
vn -0.8769 -0.4777 -0.0524
vn -0.7081 -0.7028 0.0682
vn -0.7510 0.1767 -0.6362
vn -0.9157 0.2422 -0.3207
vn -0.9670 -0.1186 0.2255
vn -0.7322 0.6706 0.1190
vn -0.8915 -0.4530 -0.0057
vn 0.1855 0.0843 -0.9790
vn 0.5961 0.0522 -0.8012
vn 0.2191 0.5861 -0.7800
vn 0.1823 0.6361 -0.7498
vn -0.4066 0.7489 -0.5233
vn 0.1335 -0.5216 -0.8427
vn -0.7604 -0.6364 -0.1293
vn 0.2102 -0.3655 -0.9068
vn -0.1996 0.4689 -0.8604
vn 0.3417 -0.5830 -0.7371
vn -0.4582 0.8302 -0.3174
vn -0.4028 0.8772 0.2614
vn -0.6264 0.7668 -0.1401
vn -0.6123 0.7325 0.2975
vn -0.6717 0.5576 0.4878
vn -0.4031 0.8500 0.3392
vn -0.5634 0.7457 0.3558
vn -0.7822 0.6191 0.0700
vn -0.8138 -0.5214 0.2567
vn -0.9025 0.2018 0.3804
vn -0.6037 -0.7783 0.1725
vn -0.3824 0.8929 0.2377
vn -0.4628 0.3504 0.8143
vn 0.1272 0.5365 0.8343
vn -0.2892 0.7376 0.6102
vn -0.3260 -0.4928 0.8068
vn 0.0419 -0.7838 0.6196
vn 0.0892 -0.2155 0.9724
vn -0.1080 -0.5634 0.8191
vn 0.7267 -0.5891 -0.3533
vn 0.9742 0.1204 -0.1908
vn 0.8534 -0.4607 -0.2437
vn 0.9555 0.0352 -0.2929
vn 0.4563 0.3344 -0.8246
vn 0.3556 -0.4757 -0.8045
vn -0.0338 -0.6029 -0.7971
vn 0.7550 -0.6191 -0.2160
vn -0.2014 -0.0988 -0.9745
vn 0.1388 0.4763 -0.8683
vn 0.8080 0.5805 -0.1004
vn 0.9271 0.3747 0.0045
vn 0.7376 0.6744 0.0339
vn 0.9511 0.2614 -0.1648
vn 0.6624 0.6338 -0.3994
vn -0.4348 0.6000 -0.6715
vn -0.4817 0.8508 0.2100
vn -0.1986 0.8982 -0.3922
vn 0.2359 0.4212 -0.8757
vn 0.4671 0.7264 -0.5041
vn 0.7408 0.5714 -0.3532
vn 0.1777 0.6127 0.7701
vn 0.3014 0.9470 0.1109
vn -0.3839 0.8017 0.4581
vn 0.9021 0.4302 0.0346
vn 0.2940 0.6940 0.6572
vn 0.2399 0.3464 0.9069
vn 0.0139 0.7045 0.7095
vn -0.0257 0.7241 0.6892
vn 0.0987 0.6430 0.7595
vn 0.6198 0.7093 0.3358
vn 0.5593 0.6677 0.4913
vn 0.8787 0.4241 -0.2190
vn 0.9369 0.3480 -0.0331
vn 0.1994 0.5419 0.8165
vn 0.6792 0.7301 -0.0755
vn 0.8338 0.4455 0.3261
vn -0.4131 -0.6993 0.5834
vn 0.1143 -0.8252 0.5532
vn -0.3281 -0.2289 0.9165
vn 0.3782 -0.3379 0.8619
vn 0.2554 0.6289 0.7343
vn -0.0189 0.7418 0.6704
vn -0.1127 -0.7852 0.6088
vn 0.8701 -0.3884 -0.3033
vn 0.8221 -0.4850 -0.2981
vn 0.8620 -0.4582 -0.2167
vn 0.6734 -0.7075 0.2143
vn 0.8016 -0.5051 0.3199
vn 0.9028 0.4257 -0.0611
vn 0.6730 0.6053 0.4250
vn 0.1124 0.2943 0.9491
vn 0.0192 -0.4838 -0.8750
vn 0.6143 0.6899 0.3830
s 1
f 1/1/1 2/2/2 3/3/3
f 3/3/3 2/2/2 4/4/4
f 1/1/1 3/3/3 5/5/5
f 5/5/5 3/3/3 6/6/6
f 3/3/3 7/7/7 6/6/6
f 6/6/6 7/7/7 8/8/8
f 9/9/9 7/7/7 3/3/3
f 9/9/9 3/3/3 4/4/4
f 10/10/10 11/11/11 12/12/12
f 12/12/12 11/11/11 13/13/13
f 12/12/12 13/13/13 14/14/14
f 10/10/10 15/15/15 11/11/11
f 9/9/9 4/4/4 16/16/16
f 1/1/1 5/5/5 17/17/17
f 17/17/17 5/5/5 18/18/18
f 19/19/19 2/2/2 17/17/17
f 17/17/17 2/2/2 1/1/1
f 19/19/19 17/17/17 15/15/15
f 15/15/15 17/17/17 11/11/11
f 18/18/18 13/13/13 17/17/17
f 17/17/17 13/13/13 11/11/11
f 8/8/8 20/20/20 6/6/6
f 18/18/18 5/5/5 20/20/20
f 20/20/20 5/5/5 6/6/6
f 18/18/18 20/20/20 13/13/13
f 13/13/13 20/20/20 14/14/14
f 20/20/20 21/21/21 22/22/22
f 22/22/22 21/21/21 23/23/23
f 24/24/24 7/7/7 9/9/9
f 25/25/25 21/21/21 24/24/24
f 24/24/24 21/21/21 8/8/8
f 26/26/26 23/23/23 25/25/25
f 25/25/25 23/23/23 21/21/21
f 9/27/9 27/28/27 24/24/24
f 28/29/28 29/30/29 9/27/9
f 9/27/9 29/30/29 27/28/27
f 28/29/28 9/27/9 30/31/30
f 30/31/30 9/27/9 16/32/16
f 27/28/27 29/30/29 31/33/31
f 31/33/31 29/30/29 32/34/32
f 25/25/25 24/24/24 27/28/27
f 27/28/27 31/33/31 25/25/25
f 25/25/25 31/33/31 26/26/26
f 32/34/32 33/35/33 31/33/31
f 31/33/31 33/35/33 34/36/34
f 28/29/28 30/31/30 35/37/35
f 35/37/35 30/31/30 36/38/36
f 32/34/32 29/30/29 35/37/35
f 35/37/35 29/30/29 28/29/28
f 35/37/35 37/39/37 32/34/32
f 32/34/32 37/39/37 33/35/33
f 36/38/36 38/40/38 35/37/35
f 35/37/35 38/40/38 37/39/37
f 39/41/39 40/42/40 41/43/41
f 41/43/41 40/42/40 42/44/42
f 43/45/43 40/42/40 44/46/44
f 44/46/44 40/42/40 39/41/39
f 44/46/44 39/41/39 45/47/45
f 45/47/45 39/41/39 46/48/46
f 44/46/44 45/47/45 47/49/47
f 47/49/47 45/47/45 15/50/15
f 43/45/43 47/49/47 48/51/48
f 49/52/49 50/53/50 51/54/51
f 51/54/51 50/53/50 52/55/52
f 53/56/53 43/45/43 48/51/48
f 14/14/14 22/22/22 54/57/54
f 23/23/23 26/26/26 55/58/55
f 54/57/54 56/59/56 57/60/57
f 57/60/57 56/59/56 58/61/58
f 14/14/14 54/57/54 12/12/12
f 12/12/12 54/57/54 57/60/57
f 58/61/58 59/62/59 57/60/57
f 57/60/57 59/62/59 53/56/53
f 60/63/60 61/64/61 62/65/62
f 62/65/62 61/64/61 55/58/55
f 55/58/55 61/64/61 56/59/56
f 56/59/56 61/64/61 58/61/58
f 58/61/58 61/64/61 59/62/59
f 59/62/59 61/64/61 63/66/63
f 34/36/34 60/63/60 62/65/62
f 64/67/64 65/68/65 66/69/66
f 66/69/66 65/68/65 67/70/67
f 68/71/68 66/69/66 67/70/67
f 65/68/65 69/72/69 67/70/67
f 67/70/67 69/72/69 70/73/70
f 69/72/69 71/74/71 70/73/70
f 70/73/70 71/74/71 72/75/72
f 73/76/73 67/70/67 70/73/70
f 72/75/72 71/74/71 52/55/52
f 52/55/52 71/74/71 74/77/74
f 74/77/74 71/74/71 75/78/75
f 75/78/75 71/74/71 69/72/69
f 64/67/64 75/78/75 65/68/65
f 65/68/65 75/78/75 69/72/69
f 76/79/76 77/80/77 78/81/78
f 78/81/78 77/80/77 79/82/79
f 79/82/79 80/83/80 78/81/78
f 78/81/78 80/83/80 81/84/81
f 82/85/82 76/79/76 38/86/38
f 38/86/38 76/79/76 78/81/78
f 39/41/39 41/43/41 46/48/46
f 46/48/46 41/43/41 83/87/83
f 84/88/84 85/89/85 86/90/86
f 86/90/86 85/89/85 87/91/87
f 85/89/85 88/92/88 87/91/87
f 87/91/87 88/92/88 89/93/89
f 87/91/87 89/93/89 79/82/79
f 79/82/79 89/93/89 80/83/80
f 79/82/79 77/80/77 87/91/87
f 87/91/87 77/80/77 86/90/86
f 26/26/26 31/33/31 34/36/34
f 50/53/50 49/52/49 53/56/53
f 48/51/48 47/49/47 10/10/10
f 10/10/10 47/49/47 15/50/15
f 72/75/72 52/55/52 63/66/63
f 63/66/63 50/53/50 59/62/59
f 10/10/10 57/60/57 48/51/48
f 48/51/48 57/60/57 53/56/53
f 23/23/23 55/58/55 22/22/22
f 68/71/68 73/76/73 60/63/60
f 38/40/38 90/94/90 37/39/37
f 37/39/37 90/94/90 33/35/33
f 90/94/90 68/71/68 33/35/33
f 33/35/33 68/71/68 34/36/34
f 82/95/82 38/40/38 36/38/36
f 51/54/51 42/44/42 40/42/40
f 51/54/51 40/42/40 49/52/49
f 90/94/90 78/81/78 81/84/81
f 38/86/38 78/81/78 90/94/90
f 81/84/81 80/83/80 66/69/66
f 66/69/66 80/83/80 64/67/64
f 80/83/80 89/93/89 64/67/64
f 64/67/64 89/93/89 75/78/75
f 52/55/52 74/77/74 51/54/51
f 51/54/51 74/77/74 88/92/88
f 75/78/75 89/93/89 74/77/74
f 74/77/74 89/93/89 88/92/88
f 90/94/90 81/84/81 68/71/68
f 68/71/68 81/84/81 66/69/66
f 51/54/51 88/92/88 42/44/42
f 88/92/88 85/89/85 42/44/42
f 42/44/42 85/89/85 41/96/41
f 24/24/24 8/8/8 7/7/7
f 72/75/72 63/66/63 70/73/70
f 14/14/14 20/20/20 22/22/22
f 55/58/55 26/26/26 62/65/62
f 62/65/62 26/26/26 34/36/34
f 83/97/83 41/96/41 84/88/84
f 84/88/84 41/96/41 85/89/85
f 19/19/19 15/15/15 91/98/91
f 15/50/15 45/47/45 91/99/91
f 12/12/12 57/60/57 10/10/10
f 60/63/60 70/73/70 92/100/92
f 70/73/70 63/66/63 92/100/92
f 63/66/63 61/64/61 92/100/92
f 61/64/61 60/63/60 92/100/92
f 21/21/21 20/20/20 8/8/8
f 52/55/52 50/53/50 63/66/63
f 59/62/59 50/53/50 53/56/53
f 68/71/68 60/63/60 34/36/34
f 49/52/49 40/42/40 53/56/53
f 53/56/53 40/42/40 43/45/43
f 44/46/44 47/49/47 43/45/43
f 73/76/73 70/73/70 60/63/60
f 68/71/68 67/70/67 73/76/73
f 55/58/55 56/59/56 22/22/22
f 22/22/22 56/59/56 54/57/54
