# Blender v2.78 (sub 0) OBJ File: ''
# www.blender.org
o Plane
v 0.888049 0.187140 -0.386969
v 0.321555 0.215083 -0.765486
v 0.324286 0.287514 -0.387149
v -0.810988 0.334250 -0.389394
v -0.246082 0.238451 -0.766609
v -0.813719 0.261818 -0.767731
v -0.245637 0.301731 0.366517
v -0.812131 0.329674 -0.012000
v -0.813274 0.325099 0.365395
v 0.885765 0.177989 0.367819
v 0.323143 0.282939 -0.009754
v 0.322001 0.278363 0.367640
v -0.244494 0.306306 -0.010877
v -0.250653 0.220149 0.742968
v 0.316984 0.196782 0.744091
v -1.384785 0.271460 0.363329
v -1.383642 0.276035 -0.014065
v -0.818290 0.243517 0.741846
v -1.385927 0.266885 0.740723
v -1.382500 0.280611 -0.391459
v -1.381357 0.285186 -0.768853
v -0.243351 0.310882 -0.388271
v 0.886907 0.182564 -0.009575
v -0.626076 0.362278 -0.451647
v -1.192029 0.281448 -0.830163
v -1.199252 0.353625 -0.451826
v -1.765712 0.313145 -0.452949
v -2.324948 0.200487 -0.832408
v -2.332171 0.272665 -0.454071
v -1.766724 0.303808 0.301840
v -2.332677 0.267997 -0.076677
v -2.333184 0.263328 0.300717
v -0.627089 0.352942 0.303142
v -1.199759 0.348957 -0.074432
v -1.200265 0.344289 0.302962
v -1.766218 0.308477 -0.075554
v -1.194055 0.262774 0.679413
v -1.760514 0.222294 0.678291
v -0.627596 0.303255 0.680536
v -2.892420 0.150670 -0.078742
v -2.892926 0.146002 0.298652
v -2.326973 0.181814 0.677169
v -2.893434 0.141334 0.676046
v -2.891914 0.155338 -0.456136
v -2.891407 0.160006 -0.833530
v -1.758489 0.240967 -0.831286
v -0.626583 0.357610 -0.074253
v -2.317124 0.129950 -0.376737
v -2.546798 0.075978 -0.734407
v -2.870755 0.074551 -0.447105
v -0.186315 0.104070 -0.894973
v 0.279744 0.228956 -0.708737
v 0.558551 0.075511 -0.825323
v 0.558551 0.129690 0.354333
v 0.558551 0.075511 0.802362
v 0.930966 0.111722 0.424972
v -1.968540 0.104070 0.872011
v -2.269060 0.228834 0.682258
v -2.546798 0.075977 0.798397
v -1.984014 0.206753 0.361148
v -1.824316 0.250242 0.683351
v -1.077428 0.238745 0.383097
v -0.330539 0.184619 0.683351
v -0.170841 0.206753 0.361148
v -0.170841 0.206753 -0.384109
v -1.077428 0.275081 -0.011481
v -0.133827 0.238745 -0.011481
v -2.021029 0.238745 -0.011481
v -1.984014 0.206753 -0.384109
v -1.077428 0.111235 0.941113
v -0.186315 0.104070 0.872011
v 0.930966 0.111723 -0.447933
v 0.654491 0.148264 -0.011481
v 0.961086 0.120116 -0.011481
v -1.824316 0.190091 -0.706312
v -1.077428 0.111236 -0.964074
v -1.968540 0.104070 -0.894973
v -2.870755 0.112050 0.422454
v -2.412697 0.148452 -0.012325
v -2.907393 0.031613 -0.012325
v -2.317124 0.129950 0.352086
v -2.269060 0.173352 -0.706908
v 0.558551 0.129690 -0.377294
v 0.279744 0.228956 0.685776
v -1.077428 0.238745 -0.406058
v -1.077428 0.266100 -0.740564
v -0.330539 0.190091 -0.706312
v -1.077428 0.200476 0.717603
v 0.889193 0.191715 -0.764363
v 0.884622 0.173413 0.745213
v -0.625570 0.321928 -0.829041
vt 0.6345 0.8668
vt 0.4828 1.0036
vt 0.4803 0.8668
vt 0.1718 0.8668
vt 0.3285 1.0036
vt 0.1743 1.0036
vt 0.3260 0.6332
vt 0.1718 0.7500
vt 0.1718 0.6332
vt 0.6345 0.6332
vt 0.4803 0.7500
vt 0.4803 0.6332
vt 0.3260 0.7500
vt 0.3260 0.5014
vt 0.4803 0.5014
vt 0.0065 0.6316
vt 0.0065 0.7484
vt 0.1718 0.5014
vt 0.0065 0.4998
vt 0.0065 0.8652
vt 0.0090 1.0020
vt 0.3260 0.8668
vt 0.6345 0.7500
vt 0.6345 0.8668
vt 0.4828 1.0036
vt 0.4803 0.8668
vt 0.3260 0.8668
vt 0.1743 1.0036
vt 0.1718 0.8668
vt 0.3260 0.6332
vt 0.1718 0.7500
vt 0.1718 0.6332
vt 0.6345 0.6332
vt 0.4803 0.7500
vt 0.4803 0.6332
vt 0.3260 0.7500
vt 0.4803 0.5014
vt 0.3260 0.5014
vt 0.6345 0.5014
vt 0.0065 0.7484
vt 0.0065 0.6316
vt 0.1718 0.5014
vt 0.0065 0.4998
vt 0.0065 0.8652
vt 0.0090 1.0020
vt 0.3285 1.0036
vt 0.6345 0.7500
vt 0.1233 0.3125
vt 0.0828 0.3885
vt 0.0194 0.3301
vt 0.5288 0.4190
vt 0.6083 0.3697
vt 0.6634 0.4007
vt 0.6623 0.1527
vt 0.6596 0.0575
vt 0.7329 0.1362
vt 0.1843 0.0435
vt 0.1367 0.0948
vt 0.0794 0.0686
vt 0.1853 0.1588
vt 0.2144 0.0917
vt 0.3549 0.1505
vt 0.4962 0.0857
vt 0.5260 0.1538
vt 0.5277 0.3075
vt 0.3562 0.2323
vt 0.5331 0.2306
vt 0.1803 0.2356
vt 0.1876 0.3125
vt 0.3536 0.0292
vt 0.5244 0.0426
vt 0.7349 0.3204
vt 0.6813 0.2289
vt 0.7398 0.2283
vt 0.2182 0.3794
vt 0.3587 0.4386
vt 0.1893 0.4220
vt 0.0177 0.1466
vt 0.1048 0.2369
vt 0.0083 0.2389
vt 0.1209 0.1608
vt 0.1370 0.3782
vt 0.6640 0.3055
vt 0.6052 0.0898
vt 0.3573 0.3139
vt 0.3581 0.3822
vt 0.4992 0.3763
vt 0.3539 0.0800
vt 0.6370 1.0036
vt 0.6345 0.5014
vt 0.6370 1.0036
vn 0.1723 0.9672 -0.1864
vn 0.0408 0.9813 -0.1882
vn 0.0411 0.9991 0.0122
vn 0.1753 0.9844 0.0125
vn 0.0398 0.9764 0.2121
vn 0.1713 0.9624 0.2108
vn -0.0935 0.9956 0.0118
vn -0.0148 0.9821 -0.1876
vn -0.0696 0.9797 -0.1882
vn -0.0713 0.9974 0.0122
vn -0.0151 0.9998 0.0123
vn -0.0701 0.9747 0.2122
vn -0.2052 0.9787 0.0118
vn -0.0873 0.9918 -0.0936
vn 0.0928 0.7038 -0.7043
vn 0.0251 0.9925 0.1200
vn -0.1210 0.7306 0.6720
vn -0.0475 0.9927 -0.1104
vn 0.0373 0.9954 0.0879
vn 0.0372 0.9955 0.0868
vn 0.0374 0.9952 0.0907
vn 0.0375 0.9951 -0.0911
vn 0.0382 0.9952 -0.0898
vn 0.0383 0.9953 -0.0893
vn -0.2243 0.9687 -0.1067
vn -0.2257 0.9685 -0.1056
vn -0.2256 0.9685 -0.1056
vn 0.0367 0.9282 0.3702
vn 0.0358 0.9287 0.3690
vn 0.0361 0.9287 0.3690
vn 0.0914 0.9955 -0.0255
vn -0.0377 0.9198 -0.3906
vn -0.2269 0.9609 -0.1586
vn -0.0180 0.9937 0.1109
vn -0.2070 0.7633 -0.6120
vn 0.0251 0.9925 -0.1200
vn 0.0928 0.7038 0.7043
vn -0.0375 0.9951 -0.0911
vn -0.0382 0.9952 -0.0898
vn -0.0373 0.9951 -0.0916
vn -0.0972 0.9920 0.0811
vn -0.0374 0.9968 -0.0701
vn -0.0372 0.9969 -0.0700
vn -0.0371 0.9969 -0.0699
vn 0.1137 0.9903 -0.0801
vn 0.1009 0.9732 0.2066
vn 0.0369 0.9969 -0.0698
vn 0.1009 0.9732 -0.2066
vn 0.1137 0.9903 0.0801
vn 0.0382 0.9952 0.0898
vn 0.0383 0.9953 0.0893
vn 0.0609 0.9917 0.1135
vn -0.0382 0.9952 0.0898
vn -0.0375 0.9951 0.0911
vn -0.0373 0.9951 0.0916
vn -0.2260 0.9684 0.1054
vn -0.2248 0.9685 0.1067
vn -0.2261 0.9684 0.1056
vn -0.0520 0.8083 0.5865
vn 0.0914 0.9955 0.0255
vn 0.0377 0.9198 -0.3906
vn -0.2292 0.9704 0.0765
vn -0.0921 0.9734 0.2097
vn -0.0911 0.9782 -0.1866
vn -0.0707 0.9918 -0.1061
vn -0.0150 0.9913 0.1305
vn -0.2013 0.9567 0.2105
vn -0.2009 0.9616 -0.1873
vn -0.3365 0.9387 0.0744
vn -0.0585 0.8907 -0.4508
vn 0.4445 0.8893 0.1075
vn -0.0402 0.8045 0.5926
vn -0.2109 0.9444 -0.2522
vn 0.0263 0.9932 0.1136
vn 0.0373 0.9951 -0.0916
vn -0.2231 0.9688 -0.1077
vn 0.0408 0.9279 0.3705
vn 0.0367 0.9975 -0.0603
vn -0.1091 0.8171 -0.5661
vn -0.0250 0.9980 0.0572
vn -0.5292 0.8309 -0.1718
vn -0.0341 0.9189 -0.3930
vn 0.4445 0.8893 -0.1075
vn -0.0670 0.8981 0.4346
vn -0.0383 0.9953 -0.0893
vn -0.0369 0.9969 -0.0698
vn -0.2216 0.9705 0.0953
vn 0.1055 0.9898 -0.0955
vn -0.0636 0.9978 -0.0201
vn 0.0972 0.9920 0.0811
vn -0.0725 0.9968 0.0325
vn 0.1055 0.9898 0.0955
vn -0.0322 0.9925 -0.1180
vn -0.0383 0.9953 0.0893
vn -0.2236 0.9687 0.1078
vn 0.0448 0.9278 0.3704
vn 0.0367 0.9975 0.0603
vn 0.1091 0.8171 -0.5661
vn -0.0900 0.9932 -0.0740
s 1
f 1/1/1 2/2/1 3/3/1
f 4/4/2 5/5/2 6/6/2
f 7/7/3 8/8/3 9/9/3
f 10/10/4 11/11/4 12/12/4
f 12/12/3 13/13/3 7/7/3
f 14/14/5 12/12/5 7/7/5
f 15/15/6 10/10/6 12/12/6
f 16/16/7 8/8/7 17/17/7
f 18/18/3 16/16/3 19/19/3
f 14/14/5 9/9/5 18/18/5
f 20/20/3 6/6/3 21/21/3
f 17/17/7 4/4/7 20/20/7
f 13/13/3 4/4/3 8/8/3
f 22/22/2 2/2/2 5/5/2
f 11/11/3 22/22/3 13/13/3
f 23/23/4 3/3/4 11/11/4
f 24/24/8 25/25/8 26/26/8
f 27/27/9 28/28/9 29/29/9
f 30/30/10 31/31/10 32/32/10
f 33/33/11 34/34/11 35/35/11
f 35/35/10 36/36/10 30/30/10
f 37/37/12 30/30/12 38/38/12
f 39/39/12 35/35/12 37/37/12
f 32/32/13 40/40/13 41/41/13
f 42/42/10 41/41/10 43/43/10
f 38/38/12 32/32/12 42/42/12
f 44/44/10 28/28/10 45/45/10
f 40/40/13 29/29/13 44/44/13
f 36/36/10 29/29/10 31/31/10
f 27/27/9 25/25/9 46/46/9
f 34/34/10 27/27/10 36/36/10
f 47/47/11 26/26/11 34/34/11
f 48/48/14 49/49/14 50/50/14
f 51/51/15 52/52/15 53/53/15
f 54/54/16 55/55/16 56/56/16
f 57/57/17 58/58/17 59/59/17
f 60/60/18 58/58/18 61/61/18
f 62/62/19 63/63/20 64/64/21
f 65/65/22 66/66/23 67/67/24
f 48/48/25 68/68/26 69/69/27
f 63/63/28 70/70/29 71/71/30
f 72/72/31 73/73/31 74/74/31
f 75/75/32 76/76/32 77/77/32
f 78/78/33 79/79/33 80/80/33
f 59/59/34 81/81/34 78/78/34
f 82/82/35 77/77/35 49/49/35
f 53/53/36 83/83/36 72/72/36
f 84/84/37 71/71/37 55/55/37
f 69/69/38 66/66/39 85/85/40
f 75/75/41 85/85/41 86/86/41
f 82/82/42 69/69/43 75/75/44
f 83/83/45 67/67/45 73/73/45
f 52/52/46 65/65/46 83/83/46
f 87/87/47 85/85/47 65/65/47
f 64/64/48 84/84/48 54/54/48
f 67/67/49 54/54/49 73/73/49
f 66/66/50 64/64/21 67/67/51
f 62/62/52 61/61/52 88/88/52
f 66/66/53 60/60/54 62/62/55
f 68/68/56 81/81/57 60/60/58
f 70/70/59 61/61/59 57/57/59
f 73/73/60 56/56/60 74/74/60
f 76/76/61 87/87/61 51/51/61
f 79/79/62 50/50/62 80/80/62
f 1/1/3 89/89/3 2/2/3
f 4/4/2 22/22/2 5/5/2
f 7/7/3 13/13/3 8/8/3
f 10/10/4 23/23/4 11/11/4
f 12/12/3 11/11/3 13/13/3
f 14/14/5 15/15/5 12/12/5
f 15/15/3 90/90/3 10/10/3
f 16/16/7 9/9/7 8/8/7
f 18/18/63 9/9/63 16/16/63
f 14/14/5 7/7/5 9/9/5
f 20/20/64 4/4/64 6/6/64
f 17/17/7 8/8/7 4/4/7
f 13/13/3 22/22/3 4/4/3
f 22/22/2 3/3/2 2/2/2
f 11/11/3 3/3/3 22/22/3
f 23/23/4 1/1/4 3/3/4
f 24/24/65 91/91/65 25/25/65
f 27/27/9 46/46/9 28/28/9
f 30/30/10 36/36/10 31/31/10
f 33/33/11 47/47/11 34/34/11
f 35/35/10 34/34/10 36/36/10
f 37/37/12 35/35/12 30/30/12
f 39/39/66 33/33/66 35/35/66
f 32/32/13 31/31/13 40/40/13
f 42/42/67 32/32/67 41/41/67
f 38/38/12 30/30/12 32/32/12
f 44/44/68 29/29/68 28/28/68
f 40/40/13 31/31/13 29/29/13
f 36/36/10 27/27/10 29/29/10
f 27/27/9 26/26/9 25/25/9
f 34/34/10 26/26/10 27/27/10
f 47/47/11 24/24/11 26/26/11
f 48/48/69 82/82/69 49/49/69
f 51/51/70 87/87/70 52/52/70
f 54/54/71 84/84/71 55/55/71
f 57/57/72 61/61/72 58/58/72
f 60/60/73 81/81/73 58/58/73
f 62/62/74 88/88/74 63/63/74
f 65/65/22 85/85/75 66/66/23
f 48/48/25 79/79/76 68/68/26
f 63/63/28 88/88/77 70/70/29
f 72/72/78 83/83/78 73/73/78
f 75/75/79 86/86/79 76/76/79
f 78/78/80 81/81/80 79/79/80
f 59/59/81 58/58/81 81/81/81
f 82/82/82 75/75/82 77/77/82
f 53/53/83 52/52/83 83/83/83
f 84/84/84 63/63/84 71/71/84
f 69/69/38 68/68/85 66/66/39
f 75/75/44 69/69/43 85/85/86
f 82/82/87 48/48/87 69/69/87
f 83/83/88 65/65/88 67/67/88
f 52/52/89 87/87/89 65/65/89
f 87/87/90 86/86/90 85/85/90
f 64/64/91 63/63/91 84/84/91
f 67/67/92 64/64/92 54/54/92
f 66/66/50 62/62/19 64/64/21
f 62/62/93 60/60/93 61/61/93
f 66/66/53 68/68/94 60/60/54
f 68/68/56 79/79/95 81/81/57
f 70/70/29 88/88/77 61/61/96
f 73/73/97 54/54/97 56/56/97
f 76/76/98 86/86/98 87/87/98
f 79/79/99 48/48/99 50/50/99
