# Blender v2.78 (sub 0) OBJ File: ''
# www.blender.org
o Circle.002
v 0.944419 0.029117 1.093537
v 0.912537 0.194024 1.054183
v 0.903641 0.029117 1.059319
v 0.921013 0.029117 0.960794
v 0.971036 0.194024 0.952859
v 0.971036 0.029117 0.942587
v 1.021058 0.029117 0.960794
v 1.037558 0.194024 1.008679
v 1.047675 0.029117 1.006895
v 0.994139 0.194024 1.083883
v 0.997652 0.029117 1.093537
v 0.904514 0.194024 1.008679
v 0.894397 0.029117 1.006895
v 1.014455 0.194024 0.968663
v 1.038431 0.029117 1.059319
v 0.862368 1.058173 1.071273
v 0.918310 0.719782 1.083885
v 0.963488 0.729479 1.083885
v 0.875857 0.710669 1.008679
v 0.810810 1.044636 0.978945
v 0.898446 0.715519 0.968663
v 0.940900 0.724630 0.952860
v 0.878114 1.062307 0.978945
v 0.983351 0.733743 0.968663
v 0.889802 1.065375 1.047473
v 0.998095 0.736908 1.054183
v 0.799123 1.041567 1.047473
v 0.883703 0.712354 1.054183
v 0.896021 1.067009 1.011009
v 1.005941 0.738592 1.008679
v 0.826556 1.048770 1.071273
v 0.844462 1.053472 0.966282
v 0.927617 0.194024 0.968663
v 0.947933 0.194024 1.083883
v 1.029535 0.194024 1.054183
v 0.728217 1.454172 1.041227
v 0.737207 1.456532 0.988514
v 0.763094 1.463328 0.978772
v 0.788979 1.470126 0.988514
v 0.802753 1.473742 1.013179
v 0.749320 1.459712 1.059535
v 0.723435 1.452916 1.013179
v 0.776866 1.466946 1.059535
v 0.792904 1.039934 1.011009
v 0.797969 1.472486 1.041227
v 1.149193 0.941160 1.073292
v 0.930834 0.676576 1.083884
v 0.967889 0.648973 1.083884
v 0.896013 0.702515 1.008679
v 1.103292 0.972221 0.977298
v 0.914541 0.688713 0.968663
v 0.949361 0.662774 0.952860
v 1.163211 0.931674 0.977298
v 0.984183 0.636836 0.968663
v 1.173615 0.924634 1.048548
v 0.996275 0.627828 1.054183
v 1.092886 0.979262 1.048548
v 0.902449 0.697721 1.054183
v 1.179152 0.920888 1.010636
v 1.002709 0.623035 1.008679
v 1.117310 0.962736 1.073292
v 1.133251 0.951948 0.964131
v 1.204644 1.389881 1.060848
v 1.182256 1.387183 1.041927
v 1.219257 1.391642 0.977375
v 1.261333 1.396716 1.012936
v 1.233870 1.393404 1.060848
v 1.087350 0.983008 1.010636
v 1.191794 1.388332 0.987443
v 1.246720 1.394953 0.987443
v 1.256258 1.396104 1.041927
v 1.177181 1.386570 1.012936
vt 0.9154 0.0005
vt 0.8903 0.1128
vt 0.8902 0.0005
vt 0.8404 0.0017
vt 0.8195 0.1128
vt 0.8154 0.0030
vt 0.7903 0.0049
vt 0.7506 0.1131
vt 0.7512 0.0013
vt 0.9373 0.1126
vt 0.9408 0.0012
vt 0.8666 0.1130
vt 0.8653 0.0009
vt 0.7964 0.1132
vt 0.9665 0.0029
vt 0.9978 0.1124
vt 0.9998 -0.0014
vt 0.9226 0.7083
vt 0.9133 0.4768
vt 0.9361 0.4790
vt 0.8663 0.4749
vt 0.8507 0.7064
vt 0.8427 0.4760
vt 0.8196 0.4782
vt 0.8146 0.7101
vt 0.7969 0.4807
vt 0.9408 0.7106
vt 0.9587 0.4814
vt 0.8865 0.7057
vt 0.8899 0.4752
vt 1.0004 0.7082
vt 0.9998 0.4817
vt 0.9045 0.7067
vt 0.8328 0.7079
vt 0.7514 0.7124
vt 0.7512 0.4832
vt 0.8430 0.1129
vt 0.9138 0.1126
vt 0.9606 0.1132
vt 0.8863 1.0009
vt 0.8566 1.0000
vt 0.8423 1.0003
vt 0.8110 0.9997
vt 0.7505 0.9995
vt 0.8999 0.9999
vt 0.8710 0.9984
vt 0.9130 0.9991
vt 0.8686 0.7056
vt 0.9264 0.9981
vt 0.8384 0.6549
vt 0.8070 0.4292
vt 0.8344 0.4255
vt 0.9993 0.4395
vt 0.9608 0.6678
vt 0.9732 0.4348
vt 0.9464 0.4298
vt 0.9121 0.6534
vt 0.9188 0.4255
vt 0.8629 0.6505
vt 0.8625 0.4232
vt 0.7885 0.6677
vt 0.7523 0.4363
vt 0.7804 0.4331
vt 0.8876 0.6499
vt 0.8907 0.4232
vt 0.8140 0.6616
vt 0.9362 0.6601
vt 0.8158 1.0000
vt 0.7844 1.0012
vt 0.9323 0.9999
vt 0.8828 1.0001
vt 0.8421 1.0006
vt 1.0004 0.6716
vt 0.9595 0.9999
vt 0.9051 1.0004
vt 0.8618 0.9998
vt 0.7508 0.6714
vt 0.7505 1.0003
vt 1.0003 1.0022
vt 1.0005 1.0008
vn -0.3414 0.0622 0.9379
vn -0.8645 0.0072 0.5026
vn -0.8644 0.0622 0.4990
vn -0.6415 0.0622 -0.7646
vn 0.0061 0.0317 -0.9995
vn 0.0000 0.0622 -0.9981
vn 0.6415 0.0622 -0.7646
vn 0.9832 0.0595 -0.1723
vn 0.9829 0.0622 -0.1733
vn 0.3471 0.0414 0.9369
vn 0.3414 0.0622 0.9379
vn -0.9846 0.0039 -0.1747
vn -0.9829 0.0622 -0.1733
vn 0.6456 0.0499 -0.7620
vn 0.8644 0.0622 0.4990
vn 0.3149 0.1131 0.9424
vn -0.3191 -0.0358 0.9470
vn 0.3544 0.0800 0.9316
vn -0.9731 -0.1464 -0.1778
vn -0.6379 -0.1211 -0.7605
vn -0.6225 -0.0873 -0.7777
vn 0.0205 0.0223 -0.9995
vn 0.6098 0.1853 -0.7706
vn 0.6436 0.1305 -0.7542
vn 0.8299 0.2391 0.5041
vn 0.8556 0.1678 0.4897
vn -0.8512 -0.1737 0.4953
vn -0.8507 -0.1258 0.5104
vn 0.9474 0.2679 -0.1753
vn 0.9675 0.1877 -0.1696
vn -0.3490 -0.0500 0.9358
vn -0.0182 0.0313 -0.9993
vn -0.6392 0.0136 -0.7689
vn -0.3366 0.0221 0.9414
vn 0.8662 0.0562 0.4965
vn -0.8524 -0.1389 0.5041
vn -0.6300 -0.0947 -0.7708
vn 0.0055 0.0316 -0.9995
vn 0.6316 0.1559 -0.7595
vn 0.9601 0.2211 -0.1713
vn -0.3316 -0.0354 0.9428
vn -0.9710 -0.1624 -0.1753
vn 0.3400 0.0980 0.9353
vn -0.9643 -0.2016 -0.1718
vn 0.8464 0.1985 0.4942
vn 0.3744 -0.1085 0.9209
vn -0.2577 0.2028 0.9447
vn 0.3200 -0.1649 0.9329
vn -0.8126 0.5556 -0.1763
vn -0.5651 0.2589 -0.7833
vn -0.5161 0.3671 -0.7739
vn 0.0330 0.0178 -0.9993
vn 0.6378 -0.2206 -0.7379
vn 0.5692 -0.3236 -0.7559
vn 0.8257 -0.3037 0.4754
vn 0.7519 -0.4400 0.4910
vn -0.7874 0.3415 0.5131
vn -0.7093 0.4899 0.5068
vn 0.9231 -0.3479 -0.1640
vn 0.8483 -0.5014 -0.1701
vn -0.2681 0.1470 0.9521
vn 0.0602 0.0192 -0.9980
vn -0.2896 0.0869 0.9532
vn -0.8396 0.1921 0.5081
vn 0.0671 0.0172 -0.9976
vn 0.9737 -0.1662 -0.1560
vn 0.4076 -0.0505 0.9118
vn -0.9055 0.3851 -0.1784
vn -0.6072 0.1480 -0.7806
vn 0.6861 -0.1069 -0.7196
vn 0.8775 -0.1463 0.4566
vn -0.9607 0.2148 -0.1759
s 1
f 1/1/1 2/2/2 3/3/3
f 4/4/4 5/5/5 6/6/6
f 7/7/7 8/8/8 9/9/9
f 10/10/10 1/1/1 11/11/11
f 12/12/12 4/4/4 13/13/13
f 6/6/6 14/14/14 7/7/7
f 15/15/15 10/10/10 11/11/11
f 2/2/2 13/13/13 3/3/3
f 8/16/8 15/15/15 9/17/9
f 16/18/16 17/19/17 18/20/18
f 19/21/19 20/22/20 21/23/21
f 22/24/22 23/25/23 24/26/24
f 25/27/25 18/20/18 26/28/26
f 27/29/27 19/21/19 28/30/28
f 29/31/29 26/28/26 30/32/30
f 31/33/31 28/30/28 17/19/17
f 21/23/21 32/34/32 22/24/22
f 24/26/24 29/35/29 30/36/30
f 24/26/24 8/8/8 14/14/14
f 21/23/21 5/5/5 33/37/33
f 34/38/34 28/30/28 2/2/2
f 8/16/8 26/28/26 35/39/35
f 2/2/2 19/21/19 12/12/12
f 35/39/35 18/20/18 10/10/10
f 22/24/22 14/14/14 5/5/5
f 19/21/19 33/37/33 12/12/12
f 10/10/10 17/19/17 34/38/34
f 31/33/31 36/40/36 27/29/27
f 32/34/32 37/41/37 38/42/38
f 29/35/29 39/43/39 40/44/40
f 16/18/16 41/45/41 31/33/31
f 20/22/20 42/46/42 37/41/37
f 23/25/23 38/42/38 39/43/39
f 25/27/25 43/47/43 16/18/16
f 27/29/27 42/46/42 44/48/44
f 29/31/29 45/49/45 25/27/25
f 46/50/46 47/51/47 48/52/48
f 49/53/49 50/54/50 51/55/51
f 52/56/52 53/57/53 54/58/54
f 55/59/55 48/52/48 56/60/56
f 57/61/57 49/62/49 58/63/58
f 59/64/59 56/60/56 60/65/60
f 61/66/61 58/63/58 47/51/47
f 51/55/51 62/67/62 52/56/52
f 54/58/54 59/64/59 60/65/60
f 57/61/57 63/68/63 64/69/64
f 50/54/50 65/70/65 62/67/62
f 53/57/53 66/71/66 59/64/59
f 61/66/61 67/72/67 63/68/63
f 68/73/68 69/74/69 50/54/50
f 62/67/62 70/75/70 53/57/53
f 46/50/46 71/76/71 67/72/67
f 68/77/68 64/69/64 72/78/72
f 55/59/55 66/71/66 71/76/71
f 1/1/1 34/38/34 2/2/2
f 4/4/4 33/37/33 5/5/5
f 7/7/7 14/14/14 8/8/8
f 10/10/10 34/38/34 1/1/1
f 12/12/12 33/37/33 4/4/4
f 6/6/6 5/5/5 14/14/14
f 15/15/15 35/39/35 10/10/10
f 2/2/2 12/12/12 13/13/13
f 8/16/8 35/39/35 15/15/15
f 16/18/16 31/33/31 17/19/17
f 19/21/19 44/48/44 20/22/20
f 22/24/22 32/34/32 23/25/23
f 25/27/25 16/18/16 18/20/18
f 27/29/27 44/48/44 19/21/19
f 29/31/29 25/27/25 26/28/26
f 31/33/31 27/29/27 28/30/28
f 21/23/21 20/22/20 32/34/32
f 24/26/24 23/25/23 29/35/29
f 24/26/24 30/36/30 8/8/8
f 21/23/21 22/24/22 5/5/5
f 34/38/34 17/19/17 28/30/28
f 8/16/8 30/32/30 26/28/26
f 2/2/2 28/30/28 19/21/19
f 35/39/35 26/28/26 18/20/18
f 22/24/22 24/26/24 14/14/14
f 19/21/19 21/23/21 33/37/33
f 10/10/10 18/20/18 17/19/17
f 31/33/31 41/45/41 36/40/36
f 32/34/32 20/22/20 37/41/37
f 29/35/29 23/25/23 39/43/39
f 16/18/16 43/47/43 41/45/41
f 20/22/20 44/48/44 42/46/42
f 23/25/23 32/34/32 38/42/38
f 25/27/25 45/49/45 43/47/43
f 27/29/27 36/40/36 42/46/42
f 29/31/29 40/79/40 45/49/45
f 46/50/46 61/66/61 47/51/47
f 49/53/49 68/73/68 50/54/50
f 52/56/52 62/67/62 53/57/53
f 55/59/55 46/50/46 48/52/48
f 57/61/57 68/77/68 49/62/49
f 59/64/59 55/59/55 56/60/56
f 61/66/61 57/61/57 58/63/58
f 51/55/51 50/54/50 62/67/62
f 54/58/54 53/57/53 59/64/59
f 57/61/57 61/66/61 63/68/63
f 50/54/50 69/74/69 65/70/65
f 53/57/53 70/75/70 66/71/66
f 61/66/61 46/50/46 67/72/67
f 68/73/68 72/80/72 69/74/69
f 62/67/62 65/70/65 70/75/70
f 46/50/46 55/59/55 71/76/71
f 68/77/68 57/61/57 64/69/64
f 55/59/55 59/64/59 66/71/66
