# Blender v2.78 (sub 0) OBJ File: ''
# www.blender.org
o Cylinder
v 0.346988 1.142658 -0.720529
v 0.000000 1.134526 -1.000000
v 0.000000 1.134526 -0.799727
v 0.625251 1.114793 -0.498621
v 0.433884 1.142658 -0.900969
v 0.779676 1.063844 -0.177956
v 0.781832 1.114793 -0.623490
v 0.779676 1.081541 0.177956
v 0.974928 1.063844 -0.222521
v 0.625251 1.138562 0.498621
v 0.974928 1.081541 0.222521
v 0.346988 1.114793 0.720529
v 0.781832 1.138562 0.623490
v 0.000000 1.114793 1.000000
v 0.433884 1.114793 0.900969
v -0.346988 1.114793 0.720529
v 0.000000 1.114793 0.799727
v -0.781831 1.155457 0.623490
v -0.433884 1.114793 0.900969
v -0.625251 1.155457 0.498622
v -0.974928 1.145893 0.222521
v -0.779676 1.072548 -0.177956
v -0.779676 1.145893 0.177956
v -0.625251 1.080158 -0.498622
v -0.974928 1.072548 -0.222521
v -0.346988 1.114793 -0.720529
v -0.781831 1.080158 -0.623490
v -0.433883 1.114793 -0.900969
v -0.625251 0.577617 -0.498622
v -0.346988 0.577617 0.720529
v 0.625251 0.577617 -0.498621
v 0.346988 0.577617 -0.720529
v 0.000000 0.577617 -0.799727
v -0.346988 0.577617 -0.720529
v -0.779676 0.577617 -0.177956
v -0.779676 0.577617 0.177956
v -0.625251 0.577617 0.498622
v 0.000000 0.577617 0.799727
v 0.346988 0.577617 0.720529
v 0.625251 0.577617 0.498621
v 0.779676 0.577617 0.177956
v 0.779676 0.577617 -0.177956
v 0.433884 0.000000 -0.900969
v 0.000000 0.000000 -1.000000
v 0.781832 0.000000 -0.623490
v 0.974928 0.000000 -0.222521
v 0.974928 -0.000000 0.222521
v 0.781832 -0.000000 0.623490
v 0.433884 -0.000000 0.900969
v 0.000000 -0.000000 1.000000
v -0.433884 -0.000000 0.900969
v -0.781831 -0.000000 0.623490
v -0.974928 -0.000000 0.222521
v -0.974928 0.000000 -0.222521
v -0.781831 0.000000 -0.623490
v -0.433883 0.000000 -0.900969
vt 0.5974 0.7372
vt 0.6239 0.8448
vt 0.5788 0.8237
vt 0.5766 0.6511
vt 0.6472 0.7365
vt 0.5205 0.5826
vt 0.6212 0.6289
vt 0.4402 0.5452
vt 0.5511 0.5432
vt 0.3517 0.5463
vt 0.4507 0.4964
vt 0.2724 0.5857
vt 0.3400 0.4978
vt 0.1729 0.6346
vt 0.2408 0.5471
vt 0.1994 0.7422
vt 0.2180 0.6556
vt 0.1756 0.8505
vt 0.1496 0.7428
vt 0.2202 0.8283
vt 0.2457 0.9362
vt 0.3566 0.9342
vt 0.2763 0.8968
vt 0.4451 0.9331
vt 0.3461 0.9829
vt 0.5244 0.8937
vt 0.4568 0.9815
vt 0.5560 0.9322
vt 0.4583 0.3439
vt 0.0930 0.4273
vt 0.2957 0.0063
vt 0.3918 0.0526
vt 0.4583 0.1360
vt 0.4820 0.2399
vt 0.3918 0.4273
vt 0.2957 0.4736
vt 0.1890 0.4736
vt 0.0265 0.3439
vt 0.0027 0.2399
vt 0.0265 0.1360
vt 0.0930 0.0526
vt 0.1890 0.0063
vt 0.4475 0.8477
vt 0.3397 0.5776
vt 0.4475 0.5776
vt 0.3397 0.8477
vt 0.2318 0.5776
vt 0.2318 0.8477
vt 0.1240 0.5776
vt 0.1240 0.8477
vt 0.0162 0.5776
vt 0.7738 0.9747
vt 0.6643 0.7006
vt 0.7738 0.7006
vt 0.6643 0.9747
vt 0.5548 0.7006
vt 0.5548 0.9747
vt 0.4454 0.7006
vt 0.4454 0.9747
vt 0.3359 0.7006
vt 0.3359 0.9747
vt 0.2265 0.7006
vt 0.2265 0.9747
vt 0.1170 0.7006
vt 0.1170 0.9747
vt 0.0075 0.7006
vt 0.7710 0.8477
vt 0.6631 0.5776
vt 0.7710 0.5776
vt 0.6677 0.9922
vt 0.7779 0.8259
vt 0.7779 0.9922
vt 0.6631 0.8477
vt 0.5553 0.5776
vt 0.5553 0.8477
vt 0.0066 0.9922
vt 0.1168 0.8259
vt 0.1168 0.9922
vt 0.7794 0.8240
vt 0.6691 0.9905
vt 0.6691 0.8240
vt 0.2270 0.8259
vt 0.2270 0.9922
vt 0.5588 0.9905
vt 0.5588 0.8240
vt 0.3371 0.8259
vt 0.3371 0.9922
vt 0.4485 0.9905
vt 0.4485 0.8240
vt 0.3382 0.9905
vt 0.3382 0.8240
vt 0.4473 0.8259
vt 0.4473 0.9922
vt 0.2279 0.9905
vt 0.2279 0.8240
vt 0.5575 0.8259
vt 0.5575 0.9922
vt 0.1176 0.9905
vt 0.1176 0.8240
vt 0.6677 0.8259
vt 0.0073 0.9905
vt 0.0073 0.8240
vt 0.0162 0.8477
vt 0.0075 0.9747
vt 0.0066 0.8259
vt 0.7794 0.9905
vn -0.0234 0.9997 0.0000
vn 0.0721 0.9968 0.0347
vn 0.0906 0.9894 0.1136
vn -0.0113 0.9987 -0.0497
vn 0.0361 0.9868 -0.1581
vn -0.0426 0.9977 0.0534
vn 0.0000 1.0000 0.0000
vn 0.0841 0.9956 0.0405
vn -0.0137 0.9998 -0.0172
vn -0.0460 0.9784 -0.2016
vn -0.0049 0.9998 0.0214
vn -0.0619 0.9951 0.0777
vn -0.0512 0.9984 0.0246
vn -0.0169 0.9998 -0.0081
vn 0.0400 0.9979 0.0501
vn 0.0260 0.9932 0.1137
vn 0.0091 0.9992 -0.0397
vn 0.0812 0.9915 -0.1019
vn -0.0493 0.9985 0.0237
vn 0.0726 0.9932 0.0910
vn -0.0061 0.9996 -0.0269
vn 0.0371 0.9860 -0.1625
vn -0.0109 0.9998 0.0137
vn -0.0717 0.9968 0.0345
vn -0.0454 0.9990 0.0000
vn -0.0177 0.6597 -0.7513
vn 0.4339 0.0000 -0.9010
vn -0.0000 0.0000 -1.0000
vn 0.3373 0.6601 -0.6712
vn 0.7818 0.0000 -0.6235
vn 0.6188 0.6578 -0.4294
vn 0.9749 0.0000 -0.2225
vn 0.7368 0.6601 -0.1463
vn 0.9749 -0.0000 0.2225
vn 0.7436 0.6575 0.1211
vn 0.7818 -0.0000 0.6235
vn 0.6005 0.6594 0.4523
vn 0.4339 -0.0000 0.9010
vn 0.3120 0.6602 0.6833
vn -0.0000 -0.0000 1.0000
vn 0.0000 0.6603 0.7510
vn -0.4339 -0.0000 0.9010
vn -0.3026 0.6593 0.6883
vn -0.7818 -0.0000 0.6235
vn -0.5752 0.6595 0.4839
vn -0.9749 -0.0000 0.2225
vn -0.7446 0.6573 0.1164
vn -0.9749 0.0000 -0.2225
vn -0.7231 0.6587 -0.2080
vn -0.7818 0.0000 -0.6235
vn -0.6247 0.7590 0.1836
vn -0.7329 0.6595 -0.1672
vn -0.6107 0.7570 -0.2323
vn -0.6041 0.6595 -0.4474
vn -0.4339 0.0000 -0.9010
vn -0.3570 0.6587 -0.6623
vn 0.6504 0.7566 0.0679
vn 0.5875 0.6597 0.4687
vn 0.4749 0.7594 0.4446
vn -0.5875 0.6598 -0.4685
vn -0.4808 0.7610 -0.4355
vn 0.3259 0.6598 0.6771
vn 0.2206 0.7592 0.6123
vn -0.3257 0.6607 -0.6764
vn -0.3078 0.7602 -0.5722
vn 0.0002 0.6603 0.7510
vn -0.0342 0.7608 0.6480
vn -0.0000 0.6603 -0.7510
vn -0.0000 0.7608 -0.6490
vn 0.3260 0.6603 -0.6765
vn 0.3257 0.7601 -0.5623
vn -0.3257 0.6606 0.6764
vn -0.2595 0.7608 0.5948
vn 0.5871 0.6603 -0.4682
vn 0.5301 0.7611 -0.3737
vn -0.5868 0.6608 0.4680
vn -0.4467 0.7554 0.4795
vn 0.7318 0.6609 -0.1667
vn 0.6084 0.7556 -0.2427
vn -0.7322 0.6603 0.1671
vn 0.7318 0.6607 0.1670
s off
f 1/1/1 2/2/1 3/3/1
f 4/4/2 5/5/2 1/1/2
f 6/6/3 7/7/3 4/4/3
f 8/8/4 9/9/4 6/6/4
f 10/10/5 11/11/5 8/8/5
f 12/12/6 13/13/6 10/10/6
f 12/12/7 14/14/7 15/15/7
f 16/16/7 14/14/7 17/17/7
f 16/16/8 18/18/8 19/19/8
f 20/20/9 21/21/9 18/18/9
f 22/22/10 21/21/10 23/23/10
f 24/24/11 25/25/11 22/22/11
f 26/26/12 27/27/12 24/24/12
f 3/3/13 28/28/13 26/26/13
f 29/29/7 30/30/7 31/31/7
f 1/1/14 5/5/14 2/2/14
f 4/4/15 7/7/15 5/5/15
f 6/6/16 9/9/16 7/7/16
f 8/8/17 11/11/17 9/9/17
f 10/10/18 13/13/18 11/11/18
f 12/12/19 15/15/19 13/13/19
f 12/12/7 17/17/7 14/14/7
f 16/16/7 19/19/7 14/14/7
f 16/16/20 20/20/20 18/18/20
f 20/20/21 23/23/21 21/21/21
f 22/22/22 25/25/22 21/21/22
f 24/24/23 27/27/23 25/25/23
f 26/26/24 28/28/24 27/27/24
f 3/3/25 2/2/25 28/28/25
f 31/31/7 32/32/7 29/29/7
f 33/33/7 34/34/7 29/29/7
f 29/29/7 35/35/7 30/30/7
f 36/36/7 37/37/7 30/30/7
f 30/30/7 38/38/7 39/39/7
f 39/39/7 40/40/7 30/30/7
f 41/41/7 42/42/7 31/31/7
f 32/32/7 33/33/7 29/29/7
f 35/35/7 36/36/7 30/30/7
f 30/30/7 40/40/7 41/41/7
f 41/41/7 31/31/7 30/30/7
s 1
f 2/43/26 43/44/27 44/45/28
f 5/46/29 45/47/30 43/44/27
f 7/48/31 46/49/32 45/47/30
f 9/50/33 47/51/34 46/49/32
f 11/52/35 48/53/36 47/54/34
f 13/55/37 49/56/38 48/53/36
f 15/57/39 50/58/40 49/56/38
f 14/59/41 51/60/42 50/58/40
f 19/61/43 52/62/44 51/60/42
f 18/63/45 53/64/46 52/62/44
f 21/65/47 54/66/48 53/64/46
f 25/67/49 55/68/50 54/69/48
f 6/70/51 41/71/52 8/72/53
f 27/73/54 56/74/55 55/68/50
f 28/75/56 44/45/28 56/74/55
f 22/76/57 29/77/58 24/78/59
f 8/79/53 40/80/60 10/81/61
f 24/78/59 34/82/62 26/83/63
f 10/81/61 39/84/64 12/85/65
f 26/83/63 33/86/66 3/87/67
f 12/85/65 38/88/68 17/89/69
f 17/89/69 30/90/70 16/91/71
f 3/87/67 32/92/72 1/93/73
f 16/91/71 37/94/74 20/95/75
f 1/93/73 31/96/76 4/97/77
f 20/95/75 36/98/78 23/99/79
f 4/97/77 42/100/80 6/70/51
f 23/99/79 35/101/81 22/102/57
f 2/43/26 5/46/29 43/44/27
f 5/46/29 7/48/31 45/47/30
f 7/48/31 9/50/33 46/49/32
f 9/50/33 11/103/35 47/51/34
f 11/52/35 13/55/37 48/53/36
f 13/55/37 15/57/39 49/56/38
f 15/57/39 14/59/41 50/58/40
f 14/59/41 19/61/43 51/60/42
f 19/61/43 18/63/45 52/62/44
f 18/63/45 21/65/47 53/64/46
f 21/65/47 25/104/49 54/66/48
f 25/67/49 27/73/54 55/68/50
f 6/70/51 42/100/80 41/71/52
f 27/73/54 28/75/56 56/74/55
f 28/75/56 2/43/26 44/45/28
f 22/76/57 35/105/81 29/77/58
f 8/79/53 41/106/52 40/80/60
f 24/78/59 29/77/58 34/82/62
f 10/81/61 40/80/60 39/84/64
f 26/83/63 34/82/62 33/86/66
f 12/85/65 39/84/64 38/88/68
f 17/89/69 38/88/68 30/90/70
f 3/87/67 33/86/66 32/92/72
f 16/91/71 30/90/70 37/94/74
f 1/93/73 32/92/72 31/96/76
f 20/95/75 37/94/74 36/98/78
f 4/97/77 31/96/76 42/100/80
f 23/99/79 36/98/78 35/101/81
