# Blender v2.78 (sub 0) OBJ File: ''
# www.blender.org
o Plane
v -0.000000 0.000000 1.000000
v 0.000000 -0.000000 -1.000000
v -0.000000 2.000000 1.000000
v 0.000000 2.000000 -1.000000
v -1.000000 0.000000 0.000000
v 1.000000 -0.000000 0.000000
v -1.000000 2.000000 -0.000000
v 1.000000 2.000000 -0.000000
v -0.707107 0.000000 0.707107
v 0.707107 -0.000000 -0.707107
v -0.707107 2.000000 0.707107
v 0.707107 2.000000 -0.707107
v -0.707107 0.000000 -0.707107
v 0.707107 -0.000000 0.707107
v -0.707107 2.000000 -0.707107
v 0.707107 2.000000 0.707107
vt 0.9999 0.0001
vt 0.0001 0.9999
vt 0.0001 0.0001
vt 0.0001 0.0001
vt 0.9999 0.9999
vt 0.0001 0.9999
vt 0.9999 0.0001
vt 0.0001 0.9999
vt 0.0001 0.0001
vt 0.0001 0.0001
vt 0.9999 0.9999
vt 0.0001 0.9999
vt 0.9999 0.9999
vt 0.9999 0.0001
vt 0.9999 0.9999
vt 0.9999 0.0001
vn 1.0000 0.0000 0.0000
vn -0.0000 0.0000 1.0000
vn 0.7071 0.0000 0.7071
vn -0.7071 0.0000 0.7071
s off
f 2/1/1 3/2/1 1/3/1
f 5/4/2 8/5/2 7/6/2
f 10/7/3 11/8/3 9/9/3
f 13/10/4 16/11/4 15/12/4
f 2/1/1 4/13/1 3/2/1
f 5/4/2 6/14/2 8/5/2
f 10/7/3 12/15/3 11/8/3
f 13/10/4 14/16/4 16/11/4
