# Blender v2.78 (sub 0) OBJ File: ''
# www.blender.org
o Cube_Cube.001
v -0.156510 -0.147347 1.193411
v -0.156510 -0.142790 1.618127
v -0.156510 0.173059 1.187370
v -0.156510 0.177616 1.612086
v 0.156510 -0.147347 1.193411
v 0.156510 -0.142790 1.618127
v 0.156510 0.173059 1.187370
v 0.156510 0.177616 1.612086
v -0.191685 0.012344 1.142664
v -0.191685 -0.181073 1.406448
v -0.191685 0.017925 1.662833
v -0.191685 0.211342 1.399050
v 0.000000 0.208551 1.138965
v 0.000000 0.214133 1.659134
v 0.191685 0.211342 1.399050
v 0.191685 0.012344 1.142664
v 0.191685 0.017925 1.662833
v 0.191685 -0.181073 1.406448
v 0.000000 -0.183864 1.146363
v 0.000000 -0.178282 1.666532
v 0.000000 0.019081 1.770564
v -0.105244 -0.099007 0.807024
v 0.000000 -0.262345 1.407980
v 0.271083 0.015134 1.402749
v 0.000000 0.292614 1.397517
v -0.271083 0.015134 1.402749
v -0.105244 0.116448 0.802962
v 0.105244 -0.099007 0.807024
v 0.105244 0.116448 0.802962
v -0.128898 0.008376 0.772900
v 0.000000 0.140315 0.770412
v 0.128898 0.008376 0.772900
v 0.000000 -0.123563 0.775387
v -0.086631 -0.086479 0.198587
v -0.086631 0.090871 0.195243
v 0.086631 -0.086479 0.198587
v 0.086631 0.090871 0.195243
v -0.106101 0.001912 0.170497
v 0.000000 0.110517 0.168450
v 0.106101 0.001912 0.170497
v 0.000000 -0.106692 0.172545
v -0.067742 -0.071287 -0.187791
v -0.067742 0.067395 -0.190406
v 0.067742 -0.071287 -0.187791
v 0.067742 0.067395 -0.190406
v -0.082967 -0.002168 -0.209756
v 0.000000 0.082757 -0.211357
v 0.082967 -0.002168 -0.209756
v 0.000000 -0.087092 -0.208155
vt 0.2551 0.8528
vt 0.1674 0.9734
vt 0.1447 0.8592
vt 0.5054 0.8852
vt 0.3441 0.9775
vt 0.3669 0.8630
vt 0.2563 0.8565
vt 0.1677 0.9779
vt 0.1458 0.8638
vt 0.5033 0.8819
vt 0.3434 0.9738
vt 0.3652 0.8600
vt 0.2570 0.6944
vt 0.1718 0.4341
vt 0.2585 0.4108
vt 0.2559 1.1274
vt 0.4092 1.0587
vt 0.2554 1.1318
vt 0.2557 0.9892
vt 0.1019 1.0583
vt 0.0289 0.6776
vt 0.1666 0.4308
vt 0.1404 0.7226
vt 0.2543 0.6910
vt 0.2528 0.4081
vt 0.0313 0.6811
vt 0.1426 0.7267
vt 0.3684 0.7232
vt 0.4795 0.6777
vt 0.0074 0.8858
vt 0.3711 0.7261
vt 0.4829 0.6810
vt 0.0065 0.8814
vt 0.3393 0.4313
vt 0.4195 0.3967
vt 0.3449 0.4336
vt 0.4256 0.3994
vt 0.0861 0.3966
vt 0.1822 -0.0342
vt 0.1921 -0.0320
vt 0.2608 -0.0513
vt 0.0914 0.3994
vt 0.2505 -0.0531
vt 0.3191 -0.0338
vt 0.3845 -0.0588
vt 0.3293 -0.0324
vt 0.3951 -0.0571
vt 0.3032 -0.3258
vt 0.3543 -0.3460
vt 0.3163 -0.3250
vt 0.3677 -0.3450
vt 0.2080 -0.3247
vt 0.2622 -0.3398
vt 0.1951 -0.3261
vt 0.2491 -0.3409
vt 0.1165 -0.0588
vt 0.1265 -0.0571
vt 0.0639 0.9826
vt 0.0202 0.9212
vt 0.1242 0.9375
vt 0.2556 0.9851
vt 0.4098 1.0625
vt 0.1018 1.0629
vt 0.1439 -0.3460
vt 0.1568 -0.3450
vt 0.0330 0.8760
vt 0.0789 0.8740
vt 0.1217 0.8906
vt 0.1099 0.9821
vt 0.0202 0.9680
vn -1.0000 0.0000 0.0000
vn -0.6199 0.6179 0.4837
vn -0.7122 0.7019 -0.0081
vn 0.0000 0.9999 -0.0117
vn 0.6199 0.6179 0.4837
vn 0.7122 0.7019 -0.0081
vn 1.0000 0.0000 0.0000
vn 0.6213 -0.6031 0.5002
vn 0.7122 -0.7019 0.0081
vn 0.0000 -0.9999 0.0117
vn -0.6213 -0.6031 0.5002
vn -0.7122 -0.7019 0.0081
vn 0.9752 -0.0040 -0.2210
vn 0.7048 -0.6984 -0.1245
vn 0.9958 -0.0016 -0.0919
vn 0.0000 0.0164 0.9998
vn 0.0000 -0.7531 0.6579
vn 0.7672 0.0112 0.6413
vn 0.0000 0.7716 0.6361
vn 0.0000 0.9716 -0.2367
vn -0.7057 0.6946 -0.1394
vn -0.6910 0.6768 -0.2536
vn -0.9752 -0.0040 -0.2210
vn -0.9958 -0.0016 -0.0919
vn 0.0000 -0.9766 -0.2150
vn 0.6893 -0.6840 -0.2385
vn -0.6893 -0.6840 -0.2385
vn 0.6910 0.6768 -0.2536
vn -0.7048 -0.6984 -0.1245
vn 0.0000 -0.9965 -0.0832
vn 0.7057 0.6946 -0.1394
vn 0.0000 0.9945 -0.1046
vn -0.7099 0.7016 -0.0617
vn 0.7096 -0.7030 -0.0466
vn 0.9987 -0.0009 -0.0512
vn -0.9987 -0.0009 -0.0512
vn -0.7096 -0.7030 -0.0466
vn 0.0000 -0.9991 -0.0417
vn 0.7099 0.7016 -0.0617
vn 0.0000 0.9980 -0.0632
vn -0.6475 -0.6455 -0.4050
vn 0.0000 -0.7324 -0.6808
vn 0.6480 0.6335 -0.4227
vn 0.0000 0.7120 -0.7022
vn 0.6475 -0.6455 -0.4050
vn 0.7218 -0.0120 -0.6919
vn -0.6480 0.6335 -0.4227
vn -0.7218 -0.0120 -0.6919
vn -0.7672 0.0112 0.6413
s 1
f 26/1/1 4/2/2 12/3/3
f 25/4/4 8/5/5 15/6/6
f 24/7/7 6/8/8 18/9/9
f 23/10/10 2/11/11 10/12/12
f 16/13/13 28/14/14 32/15/15
f 21/16/16 2/11/11 20/17/17
f 21/18/16 6/8/8 17/19/18
f 8/5/5 21/18/16 17/19/18
f 4/2/2 21/16/16 14/20/19
f 13/21/20 27/22/21 3/23/22
f 9/24/23 27/22/21 30/25/24
f 19/26/25 28/14/14 5/27/26
f 23/10/10 1/28/27 19/29/25
f 5/27/26 23/30/10 19/26/25
f 6/8/8 23/30/10 18/9/9
f 24/7/7 5/27/26 16/13/13
f 7/31/28 24/7/7 16/13/13
f 8/5/5 24/7/7 15/6/6
f 25/4/4 7/31/28 13/32/20
f 3/23/22 25/33/4 13/21/20
f 4/2/2 25/33/4 12/3/3
f 26/1/1 3/23/22 9/24/23
f 1/28/27 26/1/1 9/24/23
f 2/11/11 26/1/1 10/12/12
f 19/29/25 22/34/29 33/35/30
f 9/24/23 22/34/29 1/28/27
f 16/13/13 29/36/31 7/31/28
f 13/32/20 29/36/31 31/37/32
f 31/38/32 35/39/33 27/22/21
f 32/15/15 36/40/34 40/41/35
f 33/42/30 36/40/34 28/14/14
f 30/25/24 35/39/33 38/43/36
f 30/25/24 34/44/37 22/34/29
f 33/35/30 34/44/37 41/45/38
f 32/15/15 37/46/39 29/36/31
f 31/37/32 37/46/39 39/47/40
f 41/45/38 42/48/41 49/49/42
f 39/47/40 45/50/43 47/51/44
f 38/43/36 42/48/41 34/44/37
f 40/41/35 45/50/43 37/46/39
f 40/41/35 44/52/45 48/53/46
f 38/43/36 43/54/47 46/55/48
f 39/56/40 43/54/47 35/39/33
f 41/57/38 44/52/45 36/40/34
f 47/58/44 48/59/46 46/60/48
f 26/1/1 11/61/49 4/2/2
f 25/4/4 14/62/19 8/5/5
f 24/7/7 17/19/18 6/8/8
f 23/10/10 20/17/17 2/11/11
f 16/13/13 5/27/26 28/14/14
f 21/16/16 11/61/49 2/11/11
f 21/18/16 20/63/17 6/8/8
f 8/5/5 14/62/19 21/18/16
f 4/2/2 11/61/49 21/16/16
f 13/21/20 31/38/32 27/22/21
f 9/24/23 3/23/22 27/22/21
f 19/26/25 33/42/30 28/14/14
f 23/10/10 10/12/12 1/28/27
f 5/27/26 18/9/9 23/30/10
f 6/8/8 20/63/17 23/30/10
f 24/7/7 18/9/9 5/27/26
f 7/31/28 15/6/6 24/7/7
f 8/5/5 17/19/18 24/7/7
f 25/4/4 15/6/6 7/31/28
f 3/23/22 12/3/3 25/33/4
f 4/2/2 14/20/19 25/33/4
f 26/1/1 12/3/3 3/23/22
f 1/28/27 10/12/12 26/1/1
f 2/11/11 11/61/49 26/1/1
f 19/29/25 1/28/27 22/34/29
f 9/24/23 30/25/24 22/34/29
f 16/13/13 32/15/15 29/36/31
f 13/32/20 7/31/28 29/36/31
f 31/38/32 39/56/40 35/39/33
f 32/15/15 28/14/14 36/40/34
f 33/42/30 41/57/38 36/40/34
f 30/25/24 27/22/21 35/39/33
f 30/25/24 38/43/36 34/44/37
f 33/35/30 22/34/29 34/44/37
f 32/15/15 40/41/35 37/46/39
f 31/37/32 29/36/31 37/46/39
f 41/45/38 34/44/37 42/48/41
f 39/47/40 37/46/39 45/50/43
f 38/43/36 46/55/48 42/48/41
f 40/41/35 48/53/46 45/50/43
f 40/41/35 36/40/34 44/52/45
f 38/43/36 35/39/33 43/54/47
f 39/56/40 47/64/44 43/54/47
f 41/57/38 49/65/42 44/52/45
f 44/66/45 49/67/42 48/59/46
f 42/68/41 46/60/48 49/67/42
f 43/69/47 47/58/44 46/60/48
f 45/70/43 48/59/46 47/58/44
f 49/67/42 46/60/48 48/59/46
