# Blender v2.78 (sub 0) OBJ File: ''
# www.blender.org
o Cylinder053
v -0.070521 0.003509 -0.162201
v -0.168163 0.003509 -0.064152
v -0.189190 0.150293 -0.072810
v -0.079267 0.150293 -0.183192
v -0.167875 0.003509 0.074222
v -0.188867 0.150293 0.082968
v -0.069827 0.003509 0.171865
v -0.078486 0.150293 0.192892
v 0.068548 0.003509 0.171577
v 0.077294 0.150293 0.192568
v 0.166189 0.003509 0.073528
v 0.187217 0.150293 0.082187
v 0.165902 0.003509 -0.064846
v 0.186893 0.150293 -0.073592
v 0.067853 0.003509 -0.162488
v 0.076513 0.150293 -0.183515
v -0.189190 0.297077 -0.072810
v -0.079267 0.297077 -0.183192
v -0.188867 0.297077 0.082968
v -0.078486 0.297077 0.192892
v 0.077294 0.297077 0.192568
v 0.187217 0.297077 0.082187
v 0.186893 0.297077 -0.073592
v 0.076513 0.297077 -0.183515
v -0.189190 0.443860 -0.072810
v -0.079267 0.443860 -0.183192
v -0.188867 0.443860 0.082968
v -0.078486 0.443860 0.192892
v 0.077294 0.443860 0.192568
v 0.187217 0.443860 0.082187
v 0.186893 0.443860 -0.073592
v 0.076513 0.443860 -0.183515
v -0.156123 0.556617 -0.059193
v -0.065514 0.556617 -0.150180
v -0.155856 0.556617 0.069215
v -0.064869 0.556617 0.159824
v 0.063540 0.556617 0.159556
v 0.154148 0.556617 0.068570
v 0.153882 0.556617 -0.059838
v 0.062896 0.556617 -0.150447
v -0.040796 0.061397 -0.090855
v -0.096694 0.061397 -0.034723
v -0.096530 0.061397 0.044496
v -0.040398 0.061397 0.100396
v 0.038821 0.061397 0.100232
v 0.094721 0.061397 0.044099
v 0.094556 0.061397 -0.035120
v 0.038423 0.061397 -0.091019
v -0.123055 0.590644 -0.045576
v -0.051760 0.590644 -0.117169
v -0.122845 0.590644 0.055461
v -0.051252 0.590644 0.126756
v 0.049785 0.590644 0.126546
v 0.121080 0.590644 0.054953
v 0.120870 0.590644 -0.046084
v 0.049278 0.590644 -0.117379
v -0.096694 0.590644 -0.034722
v -0.040796 0.590644 -0.090855
v -0.096530 0.590644 0.044496
v -0.040398 0.590644 0.100396
v 0.038821 0.590644 0.100232
v 0.094721 0.590644 0.044099
v 0.094556 0.590644 -0.035120
v 0.038423 0.590644 -0.091019
vt 0.7162 0.9716
vt 0.7602 0.9858
vt 0.7162 0.9858
vt 0.7602 0.9716
vt 0.8036 0.9858
vt 0.4942 0.9716
vt 0.4513 0.9858
vt 0.4513 0.9716
vt 0.5380 0.9858
vt 0.4942 0.9858
vt 0.5380 0.9716
vt 0.5823 0.9858
vt 0.6269 0.9716
vt 0.5823 0.9716
vt 0.6717 0.9716
vt 0.6269 0.9858
vt 0.6717 0.9858
vt 0.8036 0.9716
vt 0.7602 0.7537
vt 0.7162 0.8057
vt 0.7162 0.7537
vt 0.8036 0.7537
vt 0.7602 0.8057
vt 0.4513 0.7537
vt 0.4942 0.8057
vt 0.4513 0.8057
vt 0.4942 0.7537
vt 0.5380 0.8057
vt 0.5823 0.7537
vt 0.5380 0.7537
vt 0.6269 0.8057
vt 0.5823 0.8057
vt 0.6269 0.7537
vt 0.6717 0.8057
vt 0.6717 0.7537
vt 0.7602 0.8573
vt 0.7162 0.8573
vt 0.8036 0.8057
vt 0.4513 0.8573
vt 0.4942 0.8573
vt 0.5380 0.8573
vt 0.6269 0.8573
vt 0.5823 0.8573
vt 0.6717 0.8573
vt 0.7162 0.9093
vt 0.8036 0.8573
vt 0.7602 0.9093
vt 0.4513 0.9093
vt 0.4942 0.9093
vt 0.5380 0.9093
vt 0.6269 0.9093
vt 0.5823 0.9093
vt 0.6717 0.9093
vt 0.7162 0.9513
vt 0.8036 0.9093
vt 0.7602 0.9513
vt 0.4942 0.9513
vt 0.4513 0.9513
vt 0.5380 0.9513
vt 0.6269 0.9513
vt 0.5823 0.9513
vt 0.6717 0.9513
vt 0.4133 0.9767
vt 0.2998 0.9625
vt 0.4275 0.8632
vt 0.8212 0.8166
vt 0.8488 0.7498
vt 0.8765 0.7613
vt 0.8036 0.9513
vt 0.8312 0.9852
vt 0.8541 0.8325
vt 0.8541 0.9852
vt 0.8084 0.9852
vt 0.8312 0.8325
vt 0.9684 0.9852
vt 0.9912 0.8325
vt 0.9912 0.9852
vt 0.9455 0.9852
vt 0.9684 0.8325
vt 0.9226 0.9852
vt 0.9455 0.8325
vt 0.8998 0.9852
vt 0.9226 0.8325
vt 0.8769 0.9852
vt 0.8998 0.8325
vt 0.8769 0.8325
vt 0.3140 0.8490
vt 0.3736 0.8326
vt 0.4439 0.9228
vt 0.3536 0.9931
vt 0.2834 0.9028
vt 0.8879 0.7890
vt 0.8765 0.8166
vt 0.8488 0.8281
vt 0.8097 0.7890
vt 0.8212 0.7613
vt 0.8084 0.8325
vn -0.3718 0.7245 -0.5804
vn 0.0000 1.0000 0.0000
vn -0.6733 0.7245 -0.1475
vn -0.0322 0.7245 0.6886
vn -0.6363 0.7245 0.2651
vn -0.1476 0.7245 0.6733
vn 0.3718 0.7245 0.5804
vn 0.5097 0.7245 -0.4641
vn 0.6374 0.7245 0.2625
vn 0.0322 0.7245 -0.6886
vn 0.6363 0.7245 -0.2651
vn 0.1476 0.7245 -0.6733
vn -0.0351 0.7245 -0.6884
vn -0.6374 0.7245 -0.2624
vn -0.5116 0.7245 -0.4620
vn -0.3694 0.7245 0.5820
vn -0.4620 0.7245 0.5116
vn 0.2651 0.7245 0.6363
vn 0.0351 0.7245 0.6884
vn 0.6374 0.7245 0.2624
vn 0.6727 0.7245 -0.1503
vn 0.3694 0.7245 -0.5820
vn 0.4620 0.7245 -0.5116
vn -0.2651 0.7245 -0.6363
vn -0.5341 -0.3484 -0.7703
vn -0.3835 -0.0754 -0.9205
vn -0.3811 -0.1347 -0.9147
vn -0.9257 -0.3290 -0.1868
vn -0.9220 -0.0754 -0.3797
vn -0.3797 -0.0754 0.9220
vn -0.9205 -0.0754 0.3835
vn 0.1709 -0.3484 0.9216
vn 0.3835 -0.0754 0.9205
vn 0.5289 -0.3398 0.7776
vn 0.7024 -0.6742 0.2283
vn 0.9205 -0.0754 -0.3835
vn 0.9220 -0.0754 0.3797
vn 0.5212 -0.3324 -0.7860
vn 0.3797 -0.0754 -0.9220
vn -0.1709 -0.3484 -0.9216
vn -0.9247 0.0000 -0.3808
vn -0.3846 0.0000 -0.9231
vn -0.9231 -0.0000 0.3846
vn -0.3808 -0.0000 0.9247
vn 0.3846 -0.0000 0.9231
vn 0.9231 0.0000 -0.3846
vn 0.9247 -0.0000 0.3808
vn 0.3808 0.0000 -0.9247
vn -0.3804 0.1476 -0.9130
vn -0.9145 0.1476 -0.3766
vn -0.9130 0.1476 0.3804
vn -0.3766 0.1476 0.9145
vn 0.3804 0.1476 0.9130
vn 0.9130 0.1476 -0.3804
vn 0.9145 0.1476 0.3766
vn 0.3766 0.1476 -0.9145
vn -0.3321 0.5044 -0.7971
vn -0.7985 0.5044 -0.3288
vn -0.3288 0.5044 0.7985
vn -0.7971 0.5044 0.3321
vn 0.3321 0.5044 0.7971
vn 0.7971 0.5044 -0.3321
vn 0.7985 0.5044 0.3288
vn 0.3288 0.5044 -0.7984
vn 0.5170 0.8541 -0.0576
vn -0.0966 0.9945 0.0402
vn -0.7930 0.5889 0.1563
vn 0.2625 0.7245 -0.6374
vn -0.0451 0.9988 -0.0183
vn 0.9058 0.2806 0.3174
vn -0.0187 0.9988 -0.0449
vn -0.0448 0.9988 0.0188
vn 0.8684 0.2925 -0.4004
vn -0.0183 0.9988 0.0451
vn 0.3174 0.2806 -0.9058
vn 0.0187 0.9988 0.0449
vn 0.0449 0.9988 0.0186
vn -0.9058 0.2806 -0.3174
vn 0.0449 0.9988 -0.0187
vn -0.8671 0.2878 0.4067
vn 0.0184 0.9988 -0.0450
vn -0.6374 0.7245 -0.2625
vn -0.2625 0.7245 0.6374
s off
f 50/1/1 57/2/2 58/3/2
f 49/4/3 59/5/2 57/2/2
f 52/6/4 59/7/2 51/8/5
f 52/6/6 61/9/2 60/10/2
f 53/11/7 62/12/2 61/9/2
f 55/13/8 62/12/2 54/14/9
f 56/15/10 63/16/2 55/13/11
f 56/15/12 58/3/2 64/17/2
f 50/1/13 49/4/14 57/2/2
f 49/4/15 51/18/5 59/5/2
f 52/6/16 60/10/2 59/7/2
f 52/6/17 53/11/18 61/9/2
f 53/11/19 54/14/20 62/12/2
f 55/13/21 63/16/2 62/12/2
f 56/15/22 64/17/2 63/16/2
f 56/15/23 50/1/24 58/3/2
s 1
f 2/19/25 4/20/26 1/21/27
f 5/22/28 3/23/29 2/19/25
f 5/24/28 8/25/30 6/26/31
f 7/27/32 10/28/33 8/25/30
f 11/29/34 10/28/33 9/30/35
f 11/29/34 14/31/36 12/32/37
f 13/33/38 16/34/39 14/31/36
f 15/35/40 4/20/26 16/34/39
f 4/20/26 17/36/41 18/37/42
f 6/38/31 17/36/41 3/23/29
f 8/25/30 19/39/43 6/26/31
f 10/28/33 20/40/44 8/25/30
f 12/32/37 21/41/45 10/28/33
f 12/32/37 23/42/46 22/43/47
f 16/34/39 23/42/46 14/31/36
f 4/20/26 24/44/48 16/34/39
f 17/36/41 26/45/49 18/37/42
f 19/46/43 25/47/50 17/36/41
f 20/40/44 27/48/51 19/39/43
f 21/41/45 28/49/52 20/40/44
f 22/43/47 29/50/53 21/41/45
f 22/43/47 31/51/54 30/52/55
f 23/42/46 32/53/56 31/51/54
f 18/37/42 32/53/56 24/44/48
f 25/47/50 34/54/57 26/45/49
f 27/55/51 33/56/58 25/47/50
f 27/48/51 36/57/59 35/58/60
f 29/50/53 36/57/59 28/49/52
f 30/52/55 37/59/61 29/50/53
f 30/52/55 39/60/62 38/61/63
f 32/53/56 39/60/62 31/51/54
f 26/45/49 40/62/64 32/53/56
f 9/63/35 5/64/28 13/65/38
f 44/66/65 47/67/66 48/68/67
f 33/56/58 50/1/24 34/54/57
f 51/18/5 33/56/58 35/69/60
f 36/57/59 51/8/5 35/58/60
f 53/11/18 36/57/59 37/59/61
f 54/14/9 37/59/61 38/61/63
f 55/13/11 38/61/63 39/60/62
f 40/62/64 55/13/11 39/60/62
f 34/54/57 56/15/68 40/62/64
f 57/70/69 41/71/70 58/72/71
f 59/73/72 42/74/73 57/70/69
f 60/75/74 43/76/75 59/77/72
f 61/78/76 44/79/65 60/75/74
f 62/80/77 45/81/78 61/78/76
f 63/82/79 46/83/80 62/80/77
f 64/84/81 47/85/66 63/82/79
f 58/72/71 48/86/67 64/84/81
f 2/19/25 3/23/29 4/20/26
f 5/22/28 6/38/31 3/23/29
f 5/24/28 7/27/32 8/25/30
f 7/27/32 9/30/35 10/28/33
f 11/29/34 12/32/37 10/28/33
f 11/29/34 13/33/38 14/31/36
f 13/33/38 15/35/40 16/34/39
f 15/35/40 1/21/27 4/20/26
f 4/20/26 3/23/29 17/36/41
f 6/38/31 19/46/43 17/36/41
f 8/25/30 20/40/44 19/39/43
f 10/28/33 21/41/45 20/40/44
f 12/32/37 22/43/47 21/41/45
f 12/32/37 14/31/36 23/42/46
f 16/34/39 24/44/48 23/42/46
f 4/20/26 18/37/42 24/44/48
f 17/36/41 25/47/50 26/45/49
f 19/46/43 27/55/51 25/47/50
f 20/40/44 28/49/52 27/48/51
f 21/41/45 29/50/53 28/49/52
f 22/43/47 30/52/55 29/50/53
f 22/43/47 23/42/46 31/51/54
f 23/42/46 24/44/48 32/53/56
f 18/37/42 26/45/49 32/53/56
f 25/47/50 33/56/58 34/54/57
f 27/55/51 35/69/60 33/56/58
f 27/48/51 28/49/52 36/57/59
f 29/50/53 37/59/61 36/57/59
f 30/52/55 38/61/63 37/59/61
f 30/52/55 31/51/54 39/60/62
f 32/53/56 40/62/64 39/60/62
f 26/45/49 34/54/57 40/62/64
f 1/87/27 15/88/40 13/65/38
f 13/65/38 11/89/34 9/63/35
f 9/63/35 7/90/32 5/64/28
f 5/64/28 2/91/25 1/87/27
f 1/87/27 13/65/38 5/64/28
f 48/68/67 41/92/70 42/93/73
f 42/93/73 43/94/75 44/66/65
f 44/66/65 45/95/78 46/96/80
f 46/96/80 47/67/66 44/66/65
f 48/68/67 42/93/73 44/66/65
f 33/56/58 49/4/82 50/1/24
f 51/18/5 49/4/82 33/56/58
f 36/57/59 52/6/83 51/8/5
f 53/11/18 52/6/83 36/57/59
f 54/14/9 53/11/18 37/59/61
f 55/13/11 54/14/9 38/61/63
f 40/62/64 56/15/68 55/13/11
f 34/54/57 50/1/24 56/15/68
f 57/70/69 42/74/73 41/71/70
f 59/73/72 43/97/75 42/74/73
f 60/75/74 44/79/65 43/76/75
f 61/78/76 45/81/78 44/79/65
f 62/80/77 46/83/80 45/81/78
f 63/82/79 47/85/66 46/83/80
f 64/84/81 48/86/67 47/85/66
f 58/72/71 41/71/70 48/86/67
