# Blender v2.78 (sub 0) OBJ File: ''
# www.blender.org
o Cube_Cube.001
v -0.102867 0.115289 1.339179
v -0.102867 0.115289 1.488202
v 0.102893 0.115289 1.339179
v 0.102893 0.115289 1.488202
v -0.106871 -0.116292 1.333605
v -0.106871 -0.116292 1.493776
v 0.106897 -0.116292 1.333605
v 0.106897 -0.116292 1.493776
v 0.000013 0.147480 1.306988
v -0.125989 0.147480 1.431668
v 0.000013 0.147480 1.520394
v 0.126015 0.147480 1.431668
v 0.105203 0.000000 1.335964
v 0.105203 0.000000 1.491418
v 0.130919 -0.149736 1.431668
v 0.000013 -0.149736 1.300161
v 0.000013 -0.149736 1.527221
v -0.130892 -0.149736 1.431668
v -0.105176 -0.000000 1.335964
v -0.105176 -0.000000 1.491418
v 0.000013 0.000000 1.531819
v 0.000013 0.000000 1.293311
v -0.137106 -0.000000 1.431668
v 0.139072 0.000000 1.431668
v -0.063258 0.757014 1.398508
v -0.085758 -0.447389 1.362999
v -0.085758 -0.447389 1.464383
v 0.085785 -0.447389 1.362999
v 0.085785 -0.447389 1.464383
v 0.105061 -0.474227 1.431668
v 0.000013 -0.474227 1.336161
v 0.000013 -0.474227 1.491221
v -0.105035 -0.474227 1.431668
v -0.052767 -0.834424 1.345865
v -0.052767 -0.845992 1.421719
v 0.052794 -0.834424 1.345865
v 0.052794 -0.845992 1.421719
v 0.064656 -0.858978 1.397326
v 0.000013 -0.961995 1.323367
v 0.000013 -0.974063 1.402497
v -0.064629 -0.858978 1.397326
v 0.000013 -1.047587 1.368561
v -0.082453 0.494136 1.367600
v -0.082453 0.494136 1.459781
v 0.082479 0.494136 1.367600
v 0.082479 0.494136 1.459781
v 0.000013 0.519940 1.341797
v -0.100987 0.519940 1.431668
v 0.000013 0.519940 1.485585
v 0.101013 0.519940 1.431668
v -0.063258 0.757014 1.459425
v 0.063284 0.757014 1.398508
v 0.063284 0.757014 1.459425
v 0.000013 0.849656 1.378710
v -0.077478 0.776812 1.431668
v 0.000013 0.849656 1.461213
v 0.077504 0.776812 1.431668
v 0.000013 0.876657 1.431668
v 0.061277 0.000000 1.431668
v 0.038206 0.047212 1.431668
v -0.013635 0.058872 1.431668
v -0.055209 0.026201 1.431668
v -0.055209 -0.026201 1.431668
v -0.013635 -0.058872 1.431668
v 0.038206 -0.047212 1.431668
v 0.067820 0.000000 -0.234137
v 0.042285 0.052253 -0.234137
v -0.015091 0.065158 -0.234137
v -0.061104 0.028998 -0.234137
v -0.061104 -0.028998 -0.234137
v -0.015091 -0.065158 -0.234137
v 0.042285 -0.052253 -0.234137
v -0.019271 -0.083203 -0.161678
v 0.053995 -0.066723 -0.161678
v -0.078025 0.037029 -0.161678
v -0.078025 -0.037029 -0.161678
v 0.053995 0.066723 -0.161678
v -0.019271 0.083203 -0.161678
v 0.086602 0.000000 -0.161678
v 0.040527 -0.050080 1.051494
v -0.058563 -0.027793 1.051494
v -0.014464 0.062449 1.051494
v 0.065000 0.000000 1.051494
v -0.014464 -0.062449 1.051494
v -0.058563 0.027793 1.051494
v 0.040527 0.050080 1.051494
vt 0.8213 0.8157
vt 0.7874 0.9295
vt 0.8053 0.8005
vt 0.8007 0.9433
vt 0.6769 0.6191
vt 0.7134 0.7989
vt 0.6968 0.8134
vt 0.8562 0.5453
vt 0.8209 0.4862
vt 0.8536 0.4677
vt 0.7631 0.4709
vt 0.7166 0.3104
vt 0.7661 0.2975
vt 0.6723 0.5420
vt 0.7075 0.6009
vt 0.7618 0.5461
vt 0.8198 0.4883
vt 0.8192 0.5473
vt 0.7640 0.5432
vt 0.7074 0.5422
vt 0.7092 0.4842
vt 0.7653 0.4694
vt 0.8184 0.6029
vt 0.8206 0.5443
vt 0.8170 0.6066
vt 0.7605 0.6210
vt 0.7046 0.6047
vt 0.7059 0.4863
vt 0.7044 0.5453
vt 0.8725 0.5492
vt 0.6771 0.4646
vt 0.8147 0.3180
vt 0.8326 0.3022
vt 0.8712 0.4689
vt 0.8152 0.3122
vt 0.8528 0.2955
vt 0.6508 0.5454
vt 0.8483 0.6222
vt 0.7120 0.8018
vt 0.6558 0.6247
vt 0.6792 0.8198
vt 0.7627 0.6174
vt 0.6796 0.2925
vt 0.7412 0.1101
vt 0.7682 0.3055
vt 0.7448 0.1165
vt 0.7726 0.0551
vt 0.7982 0.1175
vt 0.8103 0.1080
vt 0.7213 0.3164
vt 0.6551 0.4652
vt 0.7330 0.1066
vt 0.7733 0.0141
vt 0.7703 0.0571
vt 0.8235 0.0942
vt 0.7975 0.1111
vt 0.7159 0.0924
vt 0.7040 0.3000
vt 0.7572 0.8141
vt 0.7887 0.9355
vt 0.7547 0.9641
vt 0.7591 0.8117
vt 0.7563 0.9653
vt 0.7217 0.9343
vt 0.7265 0.9284
vt 0.8651 0.6282
vt 0.8029 0.8033
vt 0.7559 0.9852
vt 0.7064 0.9505
vt 0.8034 0.9521
vt 0.7128 0.9417
vt 0.8351 0.8225
vt 0.3100 0.0772
vt 0.3462 0.0293
vt 0.3520 0.0752
vt 0.2282 0.0783
vt 0.2682 0.0317
vt 0.2689 0.0787
vt 0.1876 0.0770
vt 0.1521 0.0296
vt 0.1899 0.0332
vt 0.3838 0.0228
vt 0.3960 0.0707
vt 0.3080 0.0324
vt 0.2285 0.0330
vt 0.1460 0.0750
vt 0.1149 0.0228
vt 0.1312 0.7658
vt 0.1642 0.7649
vt 0.2308 0.7640
vt 0.2637 0.7641
vt 0.2969 0.7645
vt 0.3633 0.7664
vt 0.1976 0.7643
vt 0.3303 0.7653
vt 0.4641 0.2474
vt 0.4715 0.2805
vt 0.4038 0.2474
vt 0.3247 0.9901
vt 0.2621 0.9891
vt 0.1686 0.9897
vt 0.2000 0.9892
vt 0.3557 0.9910
vt 0.2934 0.9894
vt 0.2312 0.9890
vt 0.1376 0.9904
vt 0.7711 0.0105
vt 0.7542 0.9914
vt 0.1023 0.0702
vt 0.3963 0.2805
vt 0.4339 0.2327
vt 0.4507 0.3071
vt 0.4172 0.3071
vn 0.8073 0.0597 0.5871
vn 0.8632 0.0790 0.4986
vn -0.9936 0.0782 0.0811
vn -0.5997 0.0632 0.7977
vn -0.9853 0.0827 0.1492
vn 0.9960 0.0230 0.0860
vn 0.6728 -0.0538 0.7378
vn 0.9942 -0.0786 0.0737
vn 0.0000 -0.0834 -0.9965
vn 0.7241 -0.0741 -0.6856
vn 0.0000 -0.0343 -0.9994
vn -0.9963 0.0228 0.0829
vn -0.6683 0.0732 0.7402
vn 0.0000 0.0267 -0.9996
vn -0.7264 -0.0533 -0.6852
vn -0.7286 0.0290 -0.6843
vn 0.0000 0.0267 0.9996
vn -0.6615 0.0295 0.7493
vn -0.6756 -0.0508 0.7355
vn 0.0000 -0.0772 0.9970
vn 0.6653 0.0763 0.7426
vn 0.6522 0.0295 0.7575
vn -0.7255 0.0763 -0.6839
vn 0.0000 0.0927 -0.9957
vn 0.7233 0.0789 -0.6860
vn 0.7243 -0.0558 -0.6872
vn 0.7224 0.0291 -0.6908
vn -0.9946 -0.0737 0.0734
vn 0.6130 -0.1055 0.7830
vn 0.9813 -0.1012 0.1637
vn -0.7241 -0.0741 -0.6856
vn -0.9813 -0.1012 0.1637
vn 0.9932 0.0831 0.0814
vn 0.7112 0.1039 -0.6953
vn 0.9853 0.0827 0.1492
vn 0.0000 0.0865 0.9962
vn 0.7405 -0.0930 -0.6656
vn 0.0000 -0.1266 0.9919
vn -0.5302 -0.2238 0.8178
vn 0.0000 -0.3912 0.9203
vn 0.5302 -0.2238 0.8178
vn 0.9517 -0.2782 0.1296
vn -0.6130 -0.1055 0.7830
vn -0.9517 -0.2782 0.1296
vn 0.0000 -0.9996 -0.0276
vn 0.0000 -0.3793 -0.9252
vn -0.7405 -0.0930 -0.6656
vn 0.0000 0.1189 -0.9929
vn -0.7035 0.1772 -0.6883
vn 0.0000 0.6530 -0.7573
vn 0.0000 0.0572 0.9984
vn 0.5586 0.1656 0.8127
vn 0.0000 0.5639 0.8258
vn 0.7035 0.1772 -0.6883
vn -0.5586 0.1656 0.8127
vn 0.5997 0.0632 0.7977
vn -0.7112 0.1039 -0.6953
vn 0.9271 0.3703 0.0576
vn 0.0000 0.9942 0.1070
vn -0.9271 0.3703 0.0576
vn -0.2193 -0.9692 -0.1121
vn 0.4338 -0.5500 -0.7136
vn 0.6164 -0.7794 -0.1126
vn -0.8938 0.4340 -0.1132
vn -0.6300 -0.3067 -0.7135
vn -0.8938 -0.4340 -0.1132
vn -0.2193 0.9692 -0.1121
vn 0.4338 0.5500 -0.7136
vn -0.1542 0.6831 -0.7138
vn 0.7008 0.0000 -0.7134
vn 0.9935 0.0000 -0.1134
vn -0.1542 -0.6831 -0.7138
vn -0.6300 0.3067 -0.7135
vn 0.6164 0.7794 -0.1126
vn 0.9999 0.0000 0.0138
vn 0.6199 0.7845 0.0137
vn -0.8993 0.4371 0.0138
vn -0.8993 -0.4371 0.0138
vn -0.2206 -0.9752 0.0136
vn -0.2206 0.9752 0.0136
vn 0.6199 -0.7845 0.0137
vn 0.6199 -0.7846 0.0097
vn -0.8993 -0.4371 0.0098
vn 0.6199 0.7846 0.0097
vn -0.2206 0.9753 0.0096
vn 0.9999 0.0000 0.0098
vn -0.2206 -0.9753 0.0096
vn -0.8993 0.4371 0.0098
s off
f 50/1/1 53/2/1 46/3/1
f 50/1/2 57/4/2 53/2/2
s 1
f 10/5/3 44/6/4 48/7/5
f 24/8/6 8/9/7 15/10/8
f 16/11/9 28/12/10 31/13/11
f 23/14/12 2/15/13 10/5/3
f 22/16/14 5/17/15 19/18/16
f 21/19/17 2/15/13 20/20/18
f 21/19/17 6/21/19 17/22/20
f 8/9/7 21/19/17 17/22/20
f 4/23/21 21/19/17 14/24/22
f 22/16/14 1/25/23 9/26/24
f 3/27/25 22/16/14 9/26/24
f 7/28/26 22/16/14 13/29/27
f 23/30/12 1/25/23 19/18/16
f 5/17/15 23/30/12 19/18/16
f 6/21/19 23/14/12 18/31/28
f 15/10/8 29/32/29 30/33/30
f 18/34/28 26/35/31 33/36/32
f 17/22/20 29/32/29 8/9/7
f 24/37/6 7/28/26 13/29/27
f 3/27/25 24/37/6 13/29/27
f 4/23/21 24/8/6 12/38/33
f 9/26/24 45/39/34 3/27/25
f 12/40/33 45/39/34 50/41/35
f 11/42/36 44/6/4 2/15/13
f 30/43/30 36/44/37 28/12/10
f 32/45/38 35/46/39 40/47/40
f 30/33/30 37/48/41 38/49/42
f 32/45/38 37/48/41 29/32/29
f 18/31/28 27/50/43 6/21/19
f 16/11/9 26/35/31 5/17/15
f 17/22/20 27/50/43 32/45/38
f 15/51/8 28/12/10 7/28/26
f 40/47/40 41/52/44 42/53/45
f 39/54/46 41/55/44 34/56/47
f 38/57/42 39/54/46 36/44/37
f 38/49/42 40/47/40 42/53/45
f 33/58/32 35/46/39 27/50/43
f 31/13/11 34/56/47 26/35/31
f 33/36/32 34/56/47 41/55/44
f 31/13/11 36/44/37 39/54/46
f 47/59/48 25/60/49 54/61/50
f 49/62/51 53/2/52 56/63/53
f 47/59/48 52/64/54 45/39/34
f 49/62/51 51/65/55 44/6/4
f 12/38/33 46/3/56 4/23/21
f 10/66/3 43/67/57 1/25/23
f 11/42/36 46/3/56 49/62/51
f 9/26/24 43/67/57 47/59/48
f 56/63/53 57/4/58 58/68/59
f 54/61/50 57/69/58 52/64/54
f 55/70/60 54/61/50 25/60/49
f 55/71/60 56/63/53 58/68/59
f 48/72/5 25/60/49 43/67/57
f 50/41/35 52/64/54 57/69/58
f 48/7/5 51/65/55 55/71/60
f 73/73/61 72/74/62 74/75/63
f 75/76/64 70/77/65 76/78/66
f 78/79/67 67/80/68 68/81/69
f 74/75/63 66/82/70 79/83/71
f 73/73/61 70/77/65 71/84/72
f 78/79/67 69/85/73 75/76/64
f 77/86/74 66/87/70 67/80/68
f 83/88/75 77/86/74 86/89/76
f 85/90/77 78/79/67 75/76/64
f 81/91/78 73/73/61 84/92/79
f 83/93/75 74/75/63 79/83/71
f 86/89/76 78/79/67 82/94/80
f 85/90/77 76/78/66 81/91/78
f 80/95/81 73/73/61 74/75/63
f 72/96/62 71/97/72 67/98/68
f 65/99/82 84/92/79 80/95/81
f 63/100/83 85/90/77 81/91/78
f 60/101/84 82/94/80 61/102/85
f 59/103/86 80/95/81 83/93/75
f 63/100/83 84/92/79 64/104/87
f 62/105/88 82/94/80 85/90/77
f 59/106/86 86/89/76 60/101/84
f 10/5/3 2/15/13 44/6/4
f 24/8/6 14/24/22 8/9/7
f 16/11/9 7/28/26 28/12/10
f 23/14/12 20/20/18 2/15/13
f 22/16/14 16/11/9 5/17/15
f 21/19/17 11/42/36 2/15/13
f 21/19/17 20/20/18 6/21/19
f 8/9/7 14/24/22 21/19/17
f 4/23/21 11/42/36 21/19/17
f 22/16/14 19/18/16 1/25/23
f 3/27/25 13/29/27 22/16/14
f 7/28/26 16/11/9 22/16/14
f 23/30/12 10/66/3 1/25/23
f 5/17/15 18/34/28 23/30/12
f 6/21/19 20/20/18 23/14/12
f 15/10/8 8/9/7 29/32/29
f 18/34/28 5/17/15 26/35/31
f 17/22/20 32/45/38 29/32/29
f 24/37/6 15/51/8 7/28/26
f 3/27/25 12/40/33 24/37/6
f 4/23/21 14/24/22 24/8/6
f 9/26/24 47/59/48 45/39/34
f 12/40/33 3/27/25 45/39/34
f 11/42/36 49/62/51 44/6/4
f 30/43/30 38/57/42 36/44/37
f 32/45/38 27/50/43 35/46/39
f 30/33/30 29/32/29 37/48/41
f 32/45/38 40/47/40 37/48/41
f 18/31/28 33/58/32 27/50/43
f 16/11/9 31/13/11 26/35/31
f 17/22/20 6/21/19 27/50/43
f 15/51/8 30/43/30 28/12/10
f 40/47/40 35/46/39 41/52/44
f 39/54/46 42/107/45 41/55/44
f 38/57/42 42/107/45 39/54/46
f 38/49/42 37/48/41 40/47/40
f 33/58/32 41/52/44 35/46/39
f 31/13/11 39/54/46 34/56/47
f 33/36/32 26/35/31 34/56/47
f 31/13/11 28/12/10 36/44/37
f 47/59/48 43/67/57 25/60/49
f 49/62/51 46/3/56 53/2/52
f 47/59/48 54/61/50 52/64/54
f 49/62/51 56/63/53 51/65/55
f 12/38/33 50/1/35 46/3/56
f 10/66/3 48/72/5 43/67/57
f 11/42/36 4/23/21 46/3/56
f 9/26/24 1/25/23 43/67/57
f 56/63/53 53/2/52 57/4/58
f 54/61/50 58/108/59 57/69/58
f 55/70/60 58/108/59 54/61/50
f 55/71/60 51/65/55 56/63/53
f 48/72/5 55/70/60 25/60/49
f 50/41/35 45/39/34 52/64/54
f 48/7/5 44/6/4 51/65/55
f 73/73/61 71/84/72 72/74/62
f 75/76/64 69/85/73 70/77/65
f 78/79/67 77/86/74 67/80/68
f 74/75/63 72/74/62 66/82/70
f 73/73/61 76/78/66 70/77/65
f 78/79/67 68/81/69 69/85/73
f 77/86/74 79/109/71 66/87/70
f 83/88/75 79/109/71 77/86/74
f 85/90/77 82/94/80 78/79/67
f 81/91/78 76/78/66 73/73/61
f 83/93/75 80/95/81 74/75/63
f 86/89/76 77/86/74 78/79/67
f 85/90/77 75/76/64 76/78/66
f 80/95/81 84/92/79 73/73/61
f 68/110/69 67/98/68 71/97/72
f 66/111/70 72/96/62 67/98/68
f 71/97/72 70/112/65 69/113/73
f 69/113/73 68/110/69 71/97/72
f 65/99/82 64/104/87 84/92/79
f 63/100/83 62/105/88 85/90/77
f 60/101/84 86/89/76 82/94/80
f 59/103/86 65/99/82 80/95/81
f 63/100/83 81/91/78 84/92/79
f 62/105/88 61/102/85 82/94/80
f 59/106/86 83/88/75 86/89/76
