# Blender v2.78 (sub 0) OBJ File: ''
# www.blender.org
o Plane
v -1.000000 0.000000 -0.200000
v 1.000000 0.000000 -0.200000
v -1.000000 0.000000 0.200000
v 1.000000 0.000000 0.200000
v -1.000000 0.200000 -0.000000
v 1.000000 0.200000 -0.000000
v -1.000000 -0.200000 0.000000
v 1.000000 -0.200000 0.000000
vt 0.4097 -0.0035
vt 0.5707 0.9957
vt 0.4139 0.9963
vt 0.4097 -0.0035
vt 0.5707 0.9957
vt 0.4139 0.9963
vt 0.5666 -0.0041
vt 0.5666 -0.0041
vn 0.0000 -1.0000 0.0000
vn 0.0000 -0.0000 -1.0000
s off
f 2/1/1 3/2/1 1/3/1
f 6/4/2 7/5/2 5/6/2
f 2/1/1 4/7/1 3/2/1
f 6/4/2 8/8/2 7/5/2
