# Blender v2.78 (sub 0) OBJ File: ''
# www.blender.org
o Cube_Cube.001
v -0.238763 -0.487383 1.290552
v -0.147157 0.006745 1.321861
v 0.238763 -0.487383 1.290552
v 0.147157 0.006745 1.321861
v -0.238763 -0.487383 1.453756
v -0.147157 0.006745 1.422448
v 0.238763 -0.487383 1.453756
v 0.147157 0.006745 1.422448
v 0.000000 -0.541044 1.272213
v -0.180314 -0.248620 1.310528
v 0.000000 0.039818 1.310557
v 0.180314 -0.248620 1.310528
v 0.292424 -0.541044 1.372154
v 0.180230 0.039818 1.372154
v 0.180314 -0.248620 1.433780
v 0.000000 -0.541044 1.472095
v 0.000000 0.039818 1.433751
v -0.180314 -0.248620 1.433780
v -0.292424 -0.541044 1.372154
v -0.180230 0.039818 1.372154
v 0.000000 0.114471 1.372154
v 0.000000 -0.662170 1.372154
v -0.255002 -0.248620 1.372154
v 0.000000 -0.248620 1.459306
v 0.255002 -0.248620 1.372154
v 0.000000 -0.248620 1.285002
v 0.052110 0.004342 1.380062
v 0.036847 0.046133 1.380062
v 0.000000 0.063443 1.380062
v -0.036847 0.046133 1.380062
v -0.052110 0.004342 1.380062
v -0.036847 -0.037449 1.380062
v 0.000000 -0.054759 1.380061
v 0.036847 -0.037449 1.380062
v 0.072726 0.004342 -0.187075
v 0.051425 0.062667 -0.187075
v -0.000000 0.086826 -0.187075
v -0.051425 0.062667 -0.187075
v -0.072726 0.004342 -0.187075
v -0.051425 -0.053983 -0.187075
v -0.000000 -0.078142 -0.187075
v 0.051425 -0.053983 -0.187075
v 0.044346 0.004342 -0.240963
v 0.031357 0.039906 -0.240963
v -0.000000 0.054638 -0.240963
v -0.031358 0.039906 -0.240963
v -0.044346 0.004342 -0.240963
v -0.031358 -0.031222 -0.240963
v -0.000000 -0.045954 -0.240963
v 0.031357 -0.031222 -0.240963
v 0.048326 0.059152 0.036801
v -0.000000 0.081855 0.036801
v -0.000000 -0.073171 0.036801
v 0.048326 -0.050468 0.036801
v -0.068344 0.004342 0.036801
v -0.048326 -0.050468 0.036801
v -0.048326 0.059152 0.036801
v 0.068343 0.004342 0.036801
v -0.000000 0.070627 0.635111
v 0.041326 -0.042529 0.635111
v -0.041326 -0.042529 0.635111
v -0.041326 0.051213 0.635111
v 0.041326 0.051213 0.635111
v -0.000000 -0.061943 0.635111
v -0.058444 0.004342 0.635111
v 0.058444 0.004342 0.635111
vt 0.7572 0.5186
vt 0.6421 0.6994
vt 0.6196 0.5104
vt 0.9649 0.5231
vt 0.8499 0.6971
vt 0.8888 0.5163
vt 0.7550 0.5119
vt 0.6433 0.6874
vt 0.6215 0.5038
vt 0.9733 0.5302
vt 0.8549 0.7094
vt 0.8949 0.5232
vt 0.7703 0.1861
vt 0.6079 0.3367
vt 0.5451 0.2825
vt 0.7438 0.8044
vt 0.8914 0.7492
vt 0.7421 0.7893
vt 0.7456 0.7132
vt 0.6021 0.7357
vt 0.7729 0.1832
vt 0.9249 0.3532
vt 0.7669 0.3106
vt 0.6057 0.3383
vt 0.9179 0.3513
vt 0.9855 0.3031
vt 0.9945 0.3037
vt 0.5451 0.5034
vt 0.7645 0.3098
vt 0.5410 0.5100
vt 0.5410 0.2825
vt 0.3766 0.1858
vt 0.3359 0.0671
vt 0.3668 0.0578
vt 0.2500 0.1880
vt 0.2761 0.0760
vt 0.2797 0.1878
vt 0.2203 0.1878
vt 0.1947 0.0725
vt 0.2239 0.0760
vt 0.1234 0.1858
vt 0.1641 0.0671
vt 0.1546 0.1865
vt 0.3454 0.1865
vt 0.3053 0.0725
vt 0.3122 0.1872
vt 0.2500 0.0774
vt 0.1878 0.1872
vt 0.2256 0.0400
vt 0.1562 0.0232
vt 0.1769 0.0327
vt 0.3231 0.0327
vt 0.2744 0.0400
vt 0.2996 0.0386
vt 0.2500 0.0394
vt 0.2004 0.0386
vt 0.3438 0.0232
vt 0.4905 0.8090
vt 0.4905 0.8456
vt 0.4099 0.8161
vt 0.1663 0.5296
vt 0.1950 0.5290
vt 0.2500 0.5284
vt 0.2763 0.5286
vt 0.3050 0.5290
vt 0.3337 0.5296
vt 0.1400 0.5305
vt 0.2237 0.5286
vt 0.3600 0.5305
vt 0.3479 0.9586
vt 0.2500 0.9572
vt 0.2734 0.9573
vt 0.2266 0.9573
vt 0.1521 0.9586
vt 0.1755 0.9580
vt 0.3245 0.9580
vt 0.2989 0.9576
vt 0.2011 0.9576
vt 0.7475 0.7260
vt 0.8853 0.7358
vt 0.6044 0.7226
vt 0.1332 0.0578
vt 0.4335 0.8766
vt 0.4099 0.8528
vt 0.4669 0.8736
vt 0.4335 0.7881
vt 0.4669 0.7852
vn 0.0000 0.0574 -0.9983
vn 0.4123 0.3469 -0.8424
vn 0.3825 0.1171 -0.9165
vn 0.9710 0.2389 0.0000
vn 0.4123 0.3469 0.8424
vn 0.3825 0.1171 0.9165
vn 0.0000 0.0574 0.9983
vn -0.4123 0.3469 0.8424
vn -0.3825 0.1171 0.9165
vn -0.9710 0.2389 0.0000
vn -0.4123 0.3469 -0.8424
vn -0.3825 0.1171 -0.9165
vn 0.0000 -1.0000 0.0000
vn -0.4942 -0.1950 0.8471
vn -0.8392 -0.5437 0.0000
vn 0.0000 1.0000 0.0000
vn -0.7476 0.6641 0.0000
vn 0.0000 0.4084 0.9128
vn 0.7476 0.6641 0.0000
vn -0.4942 -0.1950 -0.8471
vn 0.0000 -0.3427 -0.9394
vn 0.4942 -0.1950 -0.8471
vn 0.4942 -0.1950 0.8471
vn 0.8392 -0.5437 0.0000
vn 0.0000 -0.3427 0.9394
vn 0.0000 0.9998 0.0205
vn 0.7149 0.6607 -0.2288
vn 0.0000 0.9711 -0.2385
vn 0.0000 -0.9998 0.0205
vn 0.7149 -0.6607 -0.2288
vn 0.7378 -0.6748 0.0192
vn -0.7378 -0.6748 0.0192
vn -0.9757 0.0000 -0.2191
vn -0.7149 -0.6607 -0.2288
vn -0.7149 0.6607 -0.2288
vn -0.7378 0.6748 0.0192
vn 0.7378 0.6748 0.0192
vn 0.9757 0.0000 -0.2191
vn 0.9998 0.0000 0.0180
vn 0.0000 -0.9711 -0.2385
vn -0.9998 0.0000 0.0180
vn -0.4398 -0.3900 -0.8090
vn 0.0000 0.5837 -0.8119
vn -0.4398 0.3900 -0.8090
vn 0.4398 0.3900 -0.8090
vn 0.4398 -0.3900 -0.8090
vn 0.5912 0.0000 -0.8065
vn 0.0000 -0.5837 -0.8119
vn -0.5912 0.0000 -0.8065
vn -0.7379 0.6748 0.0133
vn -0.9999 0.0000 0.0125
vn 0.0000 -0.9999 0.0142
vn 0.7379 -0.6748 0.0133
vn 0.9999 0.0000 0.0125
vn 0.7379 0.6748 0.0133
vn 0.0000 0.9999 0.0142
vn -0.7379 -0.6748 0.0133
vn 0.0000 0.9999 0.0096
vn 0.0000 -0.9999 0.0096
vn 0.7380 -0.6747 0.0090
vn -0.7380 -0.6747 0.0090
vn -0.7380 0.6747 0.0090
vn 0.7380 0.6747 0.0090
vn 0.9999 0.0000 0.0085
vn -0.9999 0.0000 0.0085
vn 0.0000 0.4084 -0.9128
s 1
f 26/1/1 4/2/2 12/3/3
f 25/4/4 8/5/5 15/6/6
f 24/7/7 6/8/8 18/9/9
f 23/10/10 2/11/11 10/12/12
f 22/13/13 5/14/14 19/15/15
f 21/16/16 2/11/11 20/17/17
f 21/18/16 6/8/8 17/19/18
f 8/5/5 21/18/16 17/19/18
f 4/2/2 21/16/16 14/20/19
f 22/21/13 1/22/20 9/23/21
f 3/24/22 22/21/13 9/23/21
f 7/25/23 22/13/13 13/26/24
f 23/10/10 1/22/20 19/27/15
f 5/14/14 23/28/10 19/15/15
f 6/8/8 23/28/10 18/9/9
f 16/29/25 18/9/9 5/14/14
f 15/6/6 16/29/25 7/25/23
f 8/5/5 24/7/7 15/6/6
f 25/4/4 7/25/23 13/26/24
f 3/24/22 25/30/4 13/31/24
f 4/2/2 25/30/4 12/3/3
f 9/23/21 12/3/3 3/24/22
f 10/12/12 9/23/21 1/22/20
f 2/11/11 26/1/1 10/12/12
f 52/32/26 36/33/27 37/34/28
f 53/35/29 42/36/30 54/37/31
f 56/38/32 39/39/33 40/40/34
f 52/41/26 38/42/35 57/43/36
f 51/44/37 35/45/38 36/33/27
f 54/37/31 35/45/38 58/46/39
f 53/35/29 40/40/34 41/47/40
f 57/43/36 39/39/33 55/48/41
f 39/39/33 48/49/42 40/40/34
f 38/42/35 45/50/43 46/51/44
f 35/45/38 44/52/45 36/33/27
f 35/45/38 50/53/46 43/54/47
f 40/40/34 49/55/48 41/47/40
f 39/39/33 46/51/44 47/56/49
f 36/33/27 45/57/43 37/34/28
f 42/36/30 49/55/48 50/53/46
f 48/58/42 47/59/49 43/60/47
f 62/61/50 55/48/41 65/62/51
f 64/63/52 56/38/32 53/35/29
f 60/64/53 58/46/39 66/65/54
f 63/66/55 58/46/39 51/44/37
f 59/67/56 57/43/36 62/61/50
f 61/68/57 55/48/41 56/38/32
f 64/63/52 54/37/31 60/64/53
f 59/69/56 51/44/37 52/32/26
f 29/70/58 63/66/55 59/69/56
f 33/71/59 60/64/53 34/72/60
f 32/73/61 65/62/51 61/68/57
f 29/74/58 62/61/50 30/75/62
f 28/76/63 66/65/54 63/66/55
f 34/72/60 66/65/54 27/77/64
f 33/71/59 61/68/57 64/63/52
f 30/75/62 65/62/51 31/78/65
f 26/1/1 11/79/66 4/2/2
f 25/4/4 14/80/19 8/5/5
f 24/7/7 17/19/18 6/8/8
f 23/10/10 20/17/17 2/11/11
f 22/13/13 16/29/25 5/14/14
f 21/16/16 11/79/66 2/11/11
f 21/18/16 20/81/17 6/8/8
f 8/5/5 14/80/19 21/18/16
f 4/2/2 11/79/66 21/16/16
f 22/21/13 19/27/15 1/22/20
f 3/24/22 13/31/24 22/21/13
f 7/25/23 16/29/25 22/13/13
f 23/10/10 10/12/12 1/22/20
f 5/14/14 18/9/9 23/28/10
f 6/8/8 20/81/17 23/28/10
f 16/29/25 24/7/7 18/9/9
f 15/6/6 24/7/7 16/29/25
f 8/5/5 17/19/18 24/7/7
f 25/4/4 15/6/6 7/25/23
f 3/24/22 12/3/3 25/30/4
f 4/2/2 14/20/19 25/30/4
f 9/23/21 26/1/1 12/3/3
f 10/12/12 26/1/1 9/23/21
f 2/11/11 11/79/66 26/1/1
f 52/32/26 51/44/37 36/33/27
f 53/35/29 41/47/40 42/36/30
f 56/38/32 55/48/41 39/39/33
f 52/41/26 37/82/28 38/42/35
f 51/44/37 58/46/39 35/45/38
f 54/37/31 42/36/30 35/45/38
f 53/35/29 56/38/32 40/40/34
f 57/43/36 38/42/35 39/39/33
f 39/39/33 47/56/49 48/49/42
f 38/42/35 37/82/28 45/50/43
f 35/45/38 43/54/47 44/52/45
f 35/45/38 42/36/30 50/53/46
f 40/40/34 48/49/42 49/55/48
f 39/39/33 38/42/35 46/51/44
f 36/33/27 44/52/45 45/57/43
f 42/36/30 41/47/40 49/55/48
f 45/83/43 44/84/45 46/85/44
f 43/60/47 50/86/46 48/58/42
f 49/87/48 48/58/42 50/86/46
f 47/59/49 46/85/44 43/60/47
f 44/84/45 43/60/47 46/85/44
f 62/61/50 57/43/36 55/48/41
f 64/63/52 61/68/57 56/38/32
f 60/64/53 54/37/31 58/46/39
f 63/66/55 66/65/54 58/46/39
f 59/67/56 52/41/26 57/43/36
f 61/68/57 65/62/51 55/48/41
f 64/63/52 53/35/29 54/37/31
f 59/69/56 63/66/55 51/44/37
f 29/70/58 28/76/63 63/66/55
f 33/71/59 64/63/52 60/64/53
f 32/73/61 31/78/65 65/62/51
f 29/74/58 59/67/56 62/61/50
f 28/76/63 27/77/64 66/65/54
f 34/72/60 60/64/53 66/65/54
f 33/71/59 32/73/61 61/68/57
f 30/75/62 62/61/50 65/62/51
