# Blender v2.78 (sub 0) OBJ File: ''
# www.blender.org
o Plane.001
v -0.000140 -0.000000 0.599860
v -0.000140 1.200000 -0.600140
v -0.000140 -0.000000 -0.600140
v -0.600140 -0.000000 -0.000140
v 0.599860 1.200000 -0.000140
v 0.599860 -0.000000 -0.000140
v -0.000140 1.200000 0.599860
v -0.600140 1.200000 -0.000140
vt 0.0000 0.0000
vt 1.0000 1.0000
vt 0.0000 1.0000
vt 0.0000 0.0000
vt 1.0000 1.0000
vt 0.0000 1.0000
vt 1.0000 0.0000
vt 1.0000 0.0000
vn 0.0000 0.0000 -1.0000
vn -1.0000 -0.0000 0.0000
s 1
f 6/1/1 8/2/1 5/3/1
f 3/4/2 7/5/2 2/6/2
f 6/1/1 4/7/1 8/2/1
f 3/4/2 1/8/2 7/5/2
