# Blender v2.78 (sub 0) OBJ File: ''
# www.blender.org
o Plane.001
v 0.359615 -0.002393 0.052207
v -0.359895 0.724695 -0.052487
v 0.359615 0.724695 0.052207
v 0.052207 -0.002393 -0.359895
v -0.052487 0.724695 0.359615
v 0.052207 0.724695 -0.359895
v -0.359895 -0.002393 -0.052487
v -0.052487 -0.002393 0.359615
v 0.705116 0.098840 0.322647
v 0.282371 0.623462 0.633315
v 0.705116 0.623462 0.322647
v 0.338409 0.098840 0.266608
v 0.649078 0.623462 0.689354
v 0.338409 0.623462 0.266608
v 0.282371 0.098840 0.633315
v 0.649077 0.098840 0.689354
v 0.651259 0.098840 -0.523598
v 0.189114 0.623462 -0.275302
v 0.651259 0.623462 -0.523597
v 0.296039 0.098840 -0.630522
v 0.544334 0.623462 -0.168377
v 0.296039 0.623462 -0.630522
v 0.189114 0.098840 -0.275302
v 0.544334 0.098840 -0.168377
v -0.371203 0.098840 -0.228057
v -0.690401 0.623462 -0.644400
v -0.371203 0.623462 -0.228057
v -0.322630 0.098840 -0.595828
v -0.738973 0.623462 -0.276629
v -0.322631 0.623462 -0.595828
v -0.690401 0.098840 -0.644400
v -0.738973 0.098840 -0.276629
v -0.233100 0.098840 0.632000
v -0.702406 0.623462 0.397520
v -0.233100 0.623462 0.632000
v -0.350513 0.098840 0.280107
v -0.584993 0.623462 0.749413
v -0.350513 0.623462 0.280107
v -0.702406 0.098840 0.397520
v -0.584993 0.098840 0.749413
vt 0.0000 0.0000
vt 1.0000 1.0000
vt 0.0000 1.0000
vt 0.0000 0.0000
vt 1.0000 1.0000
vt 0.0000 1.0000
vt 1.0000 0.0000
vt 1.0000 0.0000
vt 0.0000 0.0000
vt 1.0000 1.0000
vt 0.0000 1.0000
vt 0.0000 0.0000
vt 1.0000 1.0000
vt 0.0000 1.0000
vt 1.0000 0.0000
vt 1.0000 0.0000
vt 0.0000 0.0000
vt 1.0000 1.0000
vt 0.0000 1.0000
vt 0.0000 0.0000
vt 1.0000 1.0000
vt 0.0000 1.0000
vt 1.0000 0.0000
vt 1.0000 0.0000
vt 0.0000 0.0000
vt 1.0000 1.0000
vt 0.0000 1.0000
vt 0.0000 0.0000
vt 1.0000 1.0000
vt 0.0000 1.0000
vt 1.0000 0.0000
vt 1.0000 0.0000
vt 0.0000 0.0000
vt 1.0000 1.0000
vt 0.0000 1.0000
vt 0.0000 0.0000
vt 1.0000 1.0000
vt 0.0000 1.0000
vt 1.0000 0.0000
vt 1.0000 0.0000
vn 0.1440 0.0000 -0.9896
vn -0.9896 0.0000 -0.1440
vn -0.5922 0.0000 -0.8058
vn -0.8058 0.0000 0.5922
vn -0.4733 0.0000 -0.8809
vn -0.8809 -0.0000 0.4733
vn 0.7936 0.0000 -0.6084
vn -0.6084 -0.0000 -0.7936
vn 0.4469 0.0000 -0.8946
vn -0.8946 0.0000 -0.4469
s 1
f 1/1/1 2/2/1 3/3/1
f 4/4/2 5/5/2 6/6/2
f 1/1/1 7/7/1 2/2/1
f 4/4/2 8/8/2 5/5/2
f 9/9/3 10/10/3 11/11/3
f 12/12/4 13/13/4 14/14/4
f 9/9/3 15/15/3 10/10/3
f 12/12/4 16/16/4 13/13/4
f 17/17/5 18/18/5 19/19/5
f 20/20/6 21/21/6 22/22/6
f 17/17/5 23/23/5 18/18/5
f 20/20/6 24/24/6 21/21/6
f 25/25/7 26/26/7 27/27/7
f 28/28/8 29/29/8 30/30/8
f 25/25/7 31/31/7 26/26/7
f 28/28/8 32/32/8 29/29/8
f 33/33/9 34/34/9 35/35/9
f 36/36/10 37/37/10 38/38/10
f 33/33/9 39/39/9 34/34/9
f 36/36/10 40/40/10 37/37/10
