# Blender v2.78 (sub 0) OBJ File: ''
# www.blender.org
o Plane.001
v 0.902141 0.001283 0.001374
v -0.902421 1.805851 -0.001654
v 0.902141 1.805851 0.001374
v 0.001374 0.001283 -0.902421
v -0.001654 1.805851 0.902141
v 0.001374 1.805851 -0.902421
v -0.902421 0.001283 -0.001654
v -0.001654 0.001283 0.902141
vt 0.0000 0.0000
vt 1.0000 1.0000
vt 0.0000 1.0000
vt 0.0000 0.0000
vt 1.0000 1.0000
vt 0.0000 1.0000
vt 1.0000 0.0000
vt 1.0000 0.0000
vn 0.0017 0.0000 -1.0000
vn -1.0000 0.0000 -0.0017
s 1
f 1/1/1 2/2/1 3/3/1
f 4/4/2 5/5/2 6/6/2
f 1/1/1 7/7/1 2/2/1
f 4/4/2 8/8/2 5/5/2
